<svg width="1512" height="708" viewBox="0 0 1512 708" fill="none" xmlns="http://www.w3.org/2000/svg">
<g clip-path="url(#clip0_15_2)">
<path d="M366.421 8.34229C369.859 3.18766 375.998 -0.131077 382.258 0.554862C388.569 1.00879 394.03 5.45731 396.427 11.1869C399.906 9.80495 403.981 9.40146 407.339 11.3382C411.455 13.4061 413.65 18.0564 413.417 22.5352C388.559 22.4545 363.7 22.5553 338.852 22.4847C340.106 17.552 345.213 14.5662 350.169 15.4539C353.193 9.67381 360.09 6.64761 366.421 8.34229Z" fill="#5EA27C"/>
<path d="M653.516 26.3482C658.016 14.1022 670.587 5.417 683.694 5.85075C694.373 5.91128 704.557 11.9132 710.14 20.9212C717.978 18.7121 726.817 20.1042 733.269 25.168C736.596 27.5789 738.892 31.0287 741.006 34.4786C750.158 32.0375 760.099 38.3118 762.163 47.4509C715.227 47.4308 668.271 47.6022 621.335 47.3702C620.961 40.2687 623.763 32.9554 629.466 28.5372C636.111 23.0396 645.941 22.3839 653.516 26.3482Z" fill="#5EA27C"/>
<path d="M147.853 37.5653C160.859 34.2466 175.27 40.3797 182.208 51.7683C194.05 48.0663 207.673 54.1187 212.942 65.2954C222.155 62.8946 232.107 69.0782 234.24 78.2677C187.325 78.3384 140.41 78.3081 93.5043 78.2879C92.9683 70.8132 96.2147 63.0863 102.424 58.7387C109.038 53.8261 118.343 53.4125 125.573 57.2256C129.204 47.5518 137.72 39.8653 147.853 37.5653Z" fill="#5EA27C"/>
<path d="M479.881 74.5153C483.694 68.6143 490.5 64.7105 497.6 64.9526C505.69 64.9929 513.326 70.43 516.107 77.9955C522.044 75.0701 529.922 76.4219 533.896 81.8993C536.101 84.5724 536.607 88.0727 536.961 91.4116C506.853 91.916 476.696 91.3713 446.578 91.684C447.752 85.6316 454.254 81.8993 460.171 83.1501C463.73 76.0789 472.226 72.3062 479.881 74.5153Z" fill="#5EA27C"/>
<path d="M394.475 147.396C431.854 136.673 471.659 134.989 509.948 141.536C542.381 147.114 573.743 160.187 599.461 180.856C616.906 194.746 631.681 211.824 643.565 230.647C652.05 243.831 658.583 258.105 665.884 271.935C682.561 309.096 697.175 347.226 715.986 383.41C723.591 397.512 731.135 412.048 742.422 423.638C754.214 434.119 766.997 443.429 779.244 453.376C807.268 475.679 834.432 499.202 858.856 525.429C878.86 546.946 897.114 570.268 911.434 595.96C923.489 616.811 930.346 640.163 935.322 663.575C937.233 673.108 938.831 682.752 939.034 692.496C624.188 692.496 309.352 692.496 -5.49434 692.496C-5.49434 549.114 -5.51457 405.743 -5.48423 262.362C6.39885 273.206 19.5764 282.758 34.1395 289.708C60.6363 302.56 91.3806 305.778 120.224 300.421C150.776 294.49 178.274 278.804 203.769 261.605C236.9 239.09 267.847 213.519 301.473 191.71C330.286 172.907 361.223 156.777 394.475 147.396Z" fill="#5EA27C"/>
<path d="M208.057 153.378C212.173 146.983 219.809 142.938 227.465 143.845C235.05 144.481 241.694 149.847 244.445 156.848C250.189 153.963 257.774 155.194 261.829 160.318C264.267 163.112 265.005 166.845 265.086 170.436C234.958 170.506 204.831 170.486 174.714 170.446C176.231 164.504 182.471 160.722 188.478 162.013C191.927 154.921 200.472 151.209 208.057 153.378Z" fill="#5EA27C"/>
<path d="M1395.67 501.3C1427.48 486.603 1461.05 474.549 1496.09 470.776C1501.37 470.524 1506.76 469.323 1512 470.554V693H1208.14C1207.2 688.027 1208.35 682.983 1209.13 678.071C1211.58 665.593 1216.67 653.77 1222.95 642.765C1239.26 614.702 1262.34 591.249 1286.97 570.368C1319.98 542.769 1356.71 519.629 1395.67 501.3Z" fill="#5EA27C"/>
<rect x="634.2" y="662" width="715.05" height="31" fill="#5EA27C"/>
</g>
<path d="M1291.74 558.5C1292.28 558.529 1293.36 558.588 1293.9 558.618C1293.82 559.186 1293.66 560.307 1293.58 560.875C1292.72 560.278 1292.15 559.415 1291.74 558.5Z" fill="white"/>
<path d="M1187.68 173.735C1192.03 170.341 1198.15 169.721 1203.28 171.514C1205.89 172.377 1207.95 174.251 1210.12 175.86C1256.24 210.793 1302.36 245.74 1348.49 280.673C1356.4 286.037 1360.79 296.011 1359.71 305.477C1358.31 311.814 1355.28 318.1 1350.04 322.121C1344.47 326.334 1338.91 330.546 1333.34 334.766C1333.42 325.389 1333.29 316.005 1333.34 306.628C1333.67 291.865 1321.09 278.475 1306.5 277.213C1302.23 276.962 1297.97 276.557 1293.69 276.712C1293.8 268.493 1293.72 260.267 1293.75 252.048C1284.47 251.635 1275.16 251.989 1265.87 251.871C1225 251.938 1184.13 251.746 1143.26 251.96C1143.13 260.304 1143.2 268.655 1143.24 276.999C1112.68 276.896 1082.12 277.014 1051.56 276.933C1096.88 242.457 1142.33 208.159 1187.68 173.735Z" fill="#0C2F35"/>
<path d="M1034.81 340.639C1044.93 340.639 1055.05 340.639 1065.17 340.639C1065.17 346.098 1065.17 351.558 1065.17 357.01C1055.05 357.002 1044.93 357.017 1034.81 357.01C1034.81 351.55 1034.81 346.098 1034.81 340.639Z" fill="#0C2F35"/>
<path d="M1070.19 340.639C1100.48 340.639 1130.76 340.639 1161.06 340.639C1161.06 346.098 1161.06 351.558 1161.06 357.01C1130.76 357.002 1100.48 357.017 1070.19 357.01C1070.19 351.55 1070.19 346.098 1070.19 340.639Z" fill="#0C2F35"/>
<path d="M1166.08 340.639C1190.27 340.639 1214.45 340.639 1238.63 340.639C1238.64 346.098 1238.64 351.55 1238.64 357.002C1214.45 357.017 1190.27 357.01 1166.08 357.01C1166.08 351.55 1166.08 346.098 1166.08 340.639Z" fill="#0C2F35"/>
<path d="M832.359 430.978C833.304 430.151 834.935 430.196 835.643 431.31C838.971 436.157 842.145 441.115 845.414 445.998C838.632 450.543 831.754 454.94 825.038 459.573L824.787 459.758C821.666 454.837 818.352 450.049 815.201 445.157C814.345 444.095 814.773 442.428 815.961 441.823C821.415 438.193 826.883 434.571 832.359 430.978Z" fill="#0C2F35"/>
<path d="M618.776 488.863C618.525 485.956 621.042 483.374 623.846 483.108C626.267 483.005 628.141 484.938 630.488 485.166C633.137 484.576 635.897 483.44 638.606 484.473C642.044 485.661 643.705 489.357 644.303 492.699C644.878 496.248 642.945 499.567 640.864 502.282C639.845 500.659 638.657 499.147 637.491 497.627C638.141 496.41 639.24 494.971 638.318 493.584C637.1 492.544 635.764 493.673 634.657 494.263C634.399 494.071 633.883 493.68 633.624 493.488C630.554 494.75 626.975 496.122 623.809 494.3C624.378 495.982 624.909 497.686 625.507 499.368C621.64 497.391 619.101 493.142 618.776 488.863Z" fill="#0C2F35"/>
<path d="M817.969 486.716C823.09 482.451 832.529 484.532 834.595 491.105C835.193 493.193 836.078 495.657 834.78 497.664C834.27 498.365 833.739 499.051 833.208 499.744C832.071 498.815 830.824 497.17 829.178 497.996C827.754 499.361 829.164 501.22 830.027 502.445C828.632 504.975 828.285 507.882 828.581 510.73C828.787 510.811 829.186 510.981 829.392 511.062C830.772 511.394 832.16 511.755 833.436 512.427C831.946 512.191 830.44 512.183 828.95 512.316C830.16 518.403 831.946 524.46 831.835 530.716C831.09 537.319 827.488 543.833 821.422 546.902C813.386 550.864 803.704 550.075 795.616 546.674C791.623 544.128 787.882 540.897 785.742 536.588C782.967 531.247 782.672 524.555 785.395 519.14C788.302 513.637 793.645 509.712 799.549 507.948C802.302 506.886 805.947 506.414 807.327 503.441C809.873 497.347 812.655 490.921 817.969 486.716Z" fill="#0C2F35"/>
<path d="M1298.56 499.995C1300.33 496.83 1303.64 494.801 1307.16 494.13C1310.84 493.149 1315.4 493.377 1317.96 496.572C1321.37 500.549 1323.58 506.856 1320.29 511.541L1320.17 511.194C1320.13 511.047 1320.03 510.752 1319.99 510.604C1319.57 508.044 1319.26 505.477 1318.72 502.946C1316.03 506.908 1310.95 507.513 1306.64 508.391C1304.97 509.771 1307.02 511.504 1308.25 512.272C1307.66 514.323 1307.2 516.403 1306.92 518.52C1304.48 518.742 1302.25 517.849 1300.56 516.056C1301.31 517.333 1302.05 518.609 1302.81 519.9C1304.24 519.657 1305.66 519.487 1307.12 519.391C1306.78 520.601 1305.87 521.191 1304.37 521.154C1305.88 525.573 1307.74 530.273 1311.61 533.165C1314.22 535.164 1317.96 534.995 1320.71 533.372C1322.15 532.597 1321.34 530.871 1320.9 529.742C1319.43 526.547 1318.07 523.309 1317.14 519.915C1316.96 518.712 1315.34 519.502 1314.59 519.288C1314.67 518.941 1314.82 518.24 1314.9 517.886C1316.24 517.613 1318.55 517.089 1318.75 519.096C1319.51 523.574 1322.42 527.307 1323.27 531.756C1323.73 533.925 1321.76 535.688 1319.85 536.212C1315.58 537.429 1310.7 535.887 1307.82 532.538C1304.77 529.439 1303.27 525.3 1301.68 521.353C1300.59 521.87 1299.49 522.364 1298.41 522.851C1294.54 524.024 1292.05 527.381 1289.75 530.48C1285.49 536.419 1282.61 543.272 1280.93 550.37C1281.84 551.233 1282.77 552.103 1283.77 552.893C1283.69 553.955 1283.63 555.025 1283.6 556.102C1277.44 552.981 1272.9 547.072 1270.98 540.513C1269.61 535.762 1272.82 531.586 1275.38 527.942C1280 521.516 1282.68 513.836 1283.43 505.978C1283.72 503.573 1283.46 500.689 1285.5 498.94C1288.32 496.506 1292.79 497.074 1295.54 499.353L1295.16 499.767C1291.74 502.541 1293.01 507.934 1295.57 510.87C1296.13 510.914 1297.23 510.995 1297.79 511.032C1297.07 507.373 1296.5 503.352 1298.56 499.995Z" fill="#0C2F35"/>
<path d="M642.325 505.101C643.683 505.079 645.528 504.724 646.317 506.193C647.136 511.763 642.701 517.539 637.122 518.366C634.975 518.771 632.097 518.72 630.931 516.514C629.684 513.932 630.392 510.973 630.621 508.258C631.13 506.783 632.931 506.288 634.333 506.303L634.709 507.41C634.193 507.602 633.159 507.985 632.65 508.17C632.517 510.398 631.787 513.002 633.285 514.942C634.82 516.477 637.344 516.064 639.181 515.326C642.399 513.954 643.69 510.353 644.126 507.137C643.447 506.525 642.893 505.802 642.325 505.101Z" fill="#0C2F35"/>
<path d="M933.667 538.152C934.796 535.784 937.852 533.645 940.346 535.423C943.335 537.887 943.062 542.269 942.619 545.737C942.014 550.643 938.892 554.656 935.83 558.33C937.187 562.786 939.682 567.139 943.586 569.817C945.947 571.514 949.091 571.167 951.652 570.142C955.784 568.674 958.891 564.852 963.378 564.343C968.271 564.151 971.436 568.563 975.599 570.348C977.643 571.322 979.51 569.67 981.148 568.666C985 565.877 990.063 565.213 994.653 566.069C995.45 566.726 995.553 567.508 994.97 568.401C991.649 568.733 988.122 568.128 985.015 569.64C982.196 570.791 979.945 573.617 976.691 573.44C972.197 572.945 969.37 568.829 965.289 567.353C962.345 566.364 959.865 568.725 957.526 570.12C953.496 572.79 948.213 575.041 943.46 572.916C938.449 570.518 935.756 565.361 933.453 560.588C927.941 565.619 921.808 570.053 915.189 573.506C912.886 573.838 910.68 572.281 908.458 571.735C910.591 570.304 912.716 568.865 914.901 567.523C914.908 568.474 914.967 569.433 915.07 570.393C921.38 566.851 927.461 562.712 932.523 557.519C931.151 551.152 930.59 544.113 933.667 538.152ZM935.505 540.72C933.771 545.154 933.926 550.097 934.767 554.715C937.069 553.24 938.132 550.48 939.224 548.09C940.22 544.704 940.774 540.735 938.914 537.54C937.032 537.392 936.125 539.259 935.505 540.72Z" fill="#0C2F35"/>
<path d="M1291.39 554.892C1292.22 554.737 1293.04 554.531 1293.88 554.354C1293.84 555.77 1293.85 557.194 1293.9 558.618C1293.36 558.589 1292.28 558.529 1291.74 558.5C1291.34 557.865 1290.93 557.246 1290.53 556.648C1290.74 556.213 1291.17 555.328 1291.39 554.892Z" fill="#0C2F35"/>
<path d="M621.758 559.016C626.798 556.936 631.551 565.546 626.746 568.482C621.972 569.677 617.61 562.174 621.758 559.016Z" fill="#0C2F35"/>
<path d="M663.667 570.821C665.844 569.957 667.873 568.696 669.467 566.969C670.589 575.077 670.397 583.326 669.246 591.419C668.523 596.48 667.519 601.504 666.257 606.454C665.829 608.048 665.674 609.701 665.718 611.353C665.888 616.554 664.803 621.675 664.065 626.795C662.597 635.921 661.276 645.091 659.247 654.114C658.804 656.29 658.627 658.504 658.479 660.717C658.464 661.285 658.442 662.428 658.427 663.004C658.686 663.137 659.195 663.402 659.446 663.542C658.413 664.192 657.365 664.848 656.332 665.512C656.036 664.952 655.439 663.838 655.143 663.284C654.937 662.259 654.804 661.226 654.664 660.2C652.162 641.933 649.527 623.681 647.564 605.348C646.841 601.054 645.845 596.812 644.945 592.555C644.17 587.723 642.915 582.986 642.207 578.139C643.292 577.689 644.347 577.195 645.439 576.789C645.542 576 645.631 575.218 645.705 574.443C651.793 573.882 657.962 573.13 663.667 570.821Z" fill="#0C2F35"/>
<path d="M1301.39 571.492C1302.39 568.408 1305.85 566.542 1308.91 567.988C1309.11 570.747 1310.05 573.366 1310.39 576.11C1309.15 577.114 1307.63 577.615 1306.06 577.719C1304.47 575.653 1302.92 573.58 1301.39 571.492Z" fill="#0C2F35"/>
<path d="M790.723 568.548C796.442 571.3 802.767 572.399 809.01 573.203C818.596 574.347 828.507 575.181 837.923 572.48C837.082 580.006 836.839 587.612 836.16 595.159C836.086 597.741 835.4 600.368 836.005 602.935C835.665 605.089 835.436 607.413 834.042 609.206C833.946 609.361 833.746 609.664 833.651 609.819C828.108 611.589 822.448 613.212 816.574 613.242C814.943 613.316 813.312 613.434 811.689 613.47C805.881 613.397 800.007 613.131 794.354 611.67C792.885 611.154 791.461 610.401 790.686 608.992C791.048 607.089 790.752 605.156 790.671 603.245C790.125 595.196 790.169 587.125 790.354 579.061C790.442 575.557 790.62 572.052 790.723 568.548Z" fill="#0C2F35"/>
<path d="M1306.35 589.567C1308.54 592.127 1311.96 589.597 1313.63 587.671C1316.07 587.664 1318.52 587.664 1320.97 587.464C1320.42 590.415 1320.1 593.411 1319.96 596.413C1318.62 602.197 1318.1 608.122 1317.03 613.95C1316.63 615.78 1316.6 617.897 1315.18 619.314C1307.78 626.883 1300.25 634.312 1292.4 641.432C1285.46 647.813 1278.64 654.328 1271.62 660.621C1270.17 661.698 1270.2 663.55 1270.11 665.18C1268.84 662.952 1267.36 660.37 1269.01 657.913C1271.68 655.516 1273.09 652.159 1274.9 649.134C1277.51 644.641 1280.26 640.222 1282.95 635.773C1284.28 633.582 1285.69 631.465 1287.09 629.332C1290.65 623.836 1293.93 618.023 1298.88 613.633C1298.39 611.737 1297.91 609.855 1297.41 607.974C1296.95 606.211 1296.53 604.433 1296.17 602.655C1295.24 597.941 1294.27 593.197 1294.16 588.379C1295.9 590.172 1296.69 593.241 1299.09 594.215C1301.77 593.197 1303.89 591.042 1306.35 589.567Z" fill="#0C2F35"/>
<path d="M623.809 494.3C626.975 496.122 630.554 494.75 633.624 493.488C633.883 493.68 634.399 494.071 634.657 494.263C635.764 493.673 637.1 492.544 638.318 493.584C639.24 494.971 638.141 496.41 637.491 497.627C638.657 499.147 639.845 500.659 640.864 502.282C641.402 503.19 641.83 504.156 642.325 505.101C642.893 505.801 643.447 506.524 644.126 507.137C643.69 510.353 642.399 513.954 639.181 515.326C637.344 516.064 634.82 516.477 633.285 514.942C631.787 513.002 632.517 510.398 632.65 508.17C633.159 507.985 634.193 507.602 634.709 507.41L634.333 506.303C634.237 505.993 634.03 505.366 633.934 505.056C632.621 505.558 631.196 506.849 629.765 505.979C627.58 504.407 626.577 501.729 625.507 499.368C624.909 497.686 624.378 495.982 623.809 494.3Z" fill="#F3AA75"/>
<path d="M872.091 500.467C873.161 498.985 874.497 496.402 876.711 497.221C878.652 498.527 880.12 500.667 880.534 502.983C880.548 505.197 878.43 506.598 876.873 507.838C875.951 508.162 875.028 508.457 874.106 508.753C872.822 511.084 871.752 513.518 870.77 515.99C869.553 518.853 868.387 521.745 867.243 524.644C866.527 526.326 865.73 528.023 865.619 529.882C863.405 532.509 863.095 536.352 860.402 538.661C859 540.034 856.919 539.377 855.184 539.48C856.97 536.987 857.871 533.932 857.797 530.878C858.003 529.897 857.088 529.343 856.483 528.805C856.83 528.842 857.516 528.93 857.856 528.975C859.642 525.574 861.524 522.217 863.708 519.044C865.383 516.543 867.139 514.079 868.719 511.512C869.516 510.154 870.224 508.753 870.903 507.329C869.693 505.005 868.903 502.223 870.268 499.774C870.726 499.951 871.634 500.29 872.091 500.467Z" fill="#F3AA75"/>
<path d="M829.178 497.996C830.824 497.17 832.071 498.815 833.208 499.745C833.739 499.051 834.27 498.365 834.78 497.664C834.765 500.726 834.883 503.942 833.709 506.827C832.927 508.31 831.045 507.734 829.717 507.83C829.599 508.9 829.488 509.977 829.392 511.062C829.186 510.981 828.787 510.811 828.581 510.73C828.285 507.882 828.632 504.975 830.027 502.445C829.164 501.22 827.754 499.361 829.178 497.996Z" fill="#F3AA75"/>
<path d="M1306.64 508.391C1310.95 507.513 1316.03 506.908 1318.72 502.946C1319.26 505.477 1319.57 508.044 1319.99 510.604C1320.03 510.752 1320.13 511.047 1320.17 511.194C1319.8 512.81 1319.97 514.662 1318.98 516.071C1318.06 517.244 1316.4 516.698 1315.14 516.794L1314.9 517.886C1314.82 518.24 1314.67 518.941 1314.59 519.288C1315.34 519.502 1316.96 518.712 1317.14 519.915C1318.07 523.309 1319.43 526.547 1320.9 529.742C1321.34 530.871 1322.15 532.597 1320.71 533.372C1317.96 534.995 1314.22 535.164 1311.61 533.165C1307.74 530.273 1305.88 525.573 1304.37 521.154C1305.87 521.191 1306.78 520.601 1307.12 519.391C1305.66 519.487 1304.24 519.657 1302.81 519.9C1302.05 518.609 1301.31 517.333 1300.56 516.056C1302.25 517.849 1304.48 518.742 1306.92 518.52C1307.2 516.403 1307.66 514.323 1308.25 512.272C1307.02 511.504 1304.97 509.771 1306.64 508.391Z" fill="#F3AA75"/>
<path d="M618.835 509.188C619.773 505.027 627.477 503.839 628.244 508.576C627.078 508.804 625.927 509.092 624.769 509.35C625.293 510.317 625.853 511.283 626.481 512.198C626.06 513.6 625.662 515.053 624.695 516.197C623.795 516.802 622.643 517.222 622.282 518.351C618.134 527.455 615.064 537.001 611.094 546.179C610.275 547.647 609.198 548.938 608.113 550.215C607.286 550.207 606.467 550.207 605.648 550.222C604.563 549.411 603.028 548.732 602.91 547.197C602.659 544.645 604.002 542.306 605.028 540.071C605.899 538.448 606.755 536.81 607.626 535.194C611.456 528.768 616.171 522.807 619.271 515.975C618.083 513.703 616.068 511.482 616.356 508.701C617.204 507.771 618.046 508.753 618.835 509.188Z" fill="#F3AA75"/>
<path d="M1342.67 514.64L1342.95 514.573C1344.68 517.679 1346.24 520.896 1348.29 523.818C1347.31 523.958 1346.35 524.054 1345.39 524.091C1343.38 530.398 1342.47 536.987 1341.13 543.457C1340.17 547.876 1339.81 552.553 1337.54 556.567C1336.39 556.936 1335.26 557.297 1334.1 557.555C1333.67 556.53 1333.25 555.527 1332.85 554.516C1332.42 553.49 1332.02 552.465 1331.63 551.447C1334.44 549.875 1337.37 547.847 1338.52 544.696C1339.25 542.579 1338.13 540.432 1336.69 538.934L1336.21 538.374C1338.3 532.295 1342.43 526.51 1341.77 519.834C1341.7 518.056 1341.97 516.27 1342.67 514.64Z" fill="#F3AA75"/>
<path d="M1346.53 516.979C1346.09 515.732 1347.93 515.695 1348.63 515.304C1351.75 515.178 1352.12 519 1351.94 521.317C1352.1 523.323 1349.96 523.751 1348.47 524.083C1348.31 521.59 1347 519.391 1346.53 516.979Z" fill="#F3AA75"/>
<path d="M678.603 539.052C680.028 541.554 682.699 544.04 682.256 547.094C678.744 551.55 672.685 552.686 667.873 555.298C662.28 557.659 656.664 560.005 651.254 562.772C649.631 563.48 649.439 565.428 648.546 566.77C647.727 568.261 646.007 568.836 644.487 569.33C642.93 569.131 640.842 569.662 639.764 568.209C638.03 565.464 637.882 560.551 641.749 559.621C641.653 558.987 641.476 557.703 641.38 557.061C643.255 557.467 645.173 557.88 646.804 558.95C647.638 559.289 648.568 560.271 649.498 559.592C653.468 557.526 656.981 554.708 660.663 552.185C662.663 550.687 665.047 549.573 666.464 547.426C666.626 547.515 666.944 547.677 667.106 547.758C670.877 544.741 676.33 543.715 678.603 539.052Z" fill="#F3AA75"/>
<path d="M1283.77 552.893C1286.14 554.095 1288.75 554.7 1291.39 554.892C1291.17 555.327 1290.74 556.213 1290.53 556.648C1290.93 557.246 1291.34 557.865 1291.74 558.5C1292.15 559.415 1292.72 560.278 1293.58 560.875C1294.23 561.694 1294.84 562.558 1295.47 563.421C1297.43 566.121 1299.43 568.784 1301.39 571.492C1302.92 573.58 1304.47 575.653 1306.06 577.719C1306.81 578.847 1308.03 579.356 1309.37 579.401C1311.77 579.474 1313.92 581.651 1313.97 584.041C1313.07 583.93 1312.19 583.827 1311.31 583.731C1311.73 584.203 1312.16 584.698 1312.65 585.14C1313.04 585.384 1313.82 585.871 1314.21 586.114C1314.06 586.505 1313.77 587.28 1313.63 587.671C1311.96 589.597 1308.54 592.127 1306.35 589.567C1304.81 587 1305.49 583.776 1304.2 581.201C1299.99 576.103 1295.04 571.654 1290.45 566.888C1287.39 563.885 1284.67 560.315 1283.6 556.102C1283.63 555.025 1283.69 553.955 1283.77 552.893Z" fill="#F3AA75"/>
<path d="M816.574 613.242C822.448 613.212 828.108 611.589 833.65 609.819C833.65 614.887 833.171 619.948 832.61 624.987C831.127 638.09 829.466 651.163 828.005 664.265C827.4 665.446 825.961 665.756 824.795 665.269C824.773 664.782 824.721 663.793 824.692 663.306C824.839 658.976 824.278 654.667 823.289 650.469C821.267 640.185 819.563 629.841 817.954 619.491C817.541 617.395 817.828 615.064 816.574 613.242Z" fill="#F3AA75"/>
<path d="M794.354 611.67C800.006 613.131 805.881 613.397 811.689 613.471C809.696 629.982 807.394 646.456 805.106 662.93C804.98 663.749 804.855 664.568 804.729 665.402C803.01 665.52 801.217 664.878 801.682 662.797C801.637 659.713 801.446 656.622 800.796 653.605C798.973 645.541 797.785 637.352 796.457 629.192C795.608 623.371 794.391 617.573 794.354 611.67Z" fill="#F3AA75"/>
<path d="M1295.57 510.87C1293.01 507.934 1291.74 502.541 1295.16 499.767C1296.28 499.87 1297.41 499.944 1298.56 499.995C1296.5 503.352 1297.07 507.373 1297.79 511.032C1297.23 510.995 1296.13 510.914 1295.57 510.87Z" fill="#286F4D"/>
<path d="M1343.5 505.72C1348.46 503.721 1353.22 501.065 1358.34 499.56C1358.47 500.704 1358.61 501.847 1358.77 503.005C1359.04 505.403 1359.33 507.786 1359.62 510.191C1359.68 510.87 1359.81 512.235 1359.88 512.914C1359.63 513.238 1359.14 513.88 1358.89 514.205C1353.98 513.703 1349.19 512.073 1344.24 512.191L1344.15 512.198C1343.97 510.029 1343.76 507.867 1343.5 505.72Z" fill="#286F4D"/>
<path d="M1336.48 507.13C1337.34 506.989 1338.21 506.857 1339.08 506.724C1339.34 508.826 1339.56 510.936 1339.84 513.039L1339.97 513.939C1339.29 513.991 1337.94 514.087 1337.26 514.131C1336.83 511.814 1336.59 509.476 1336.48 507.13Z" fill="#286F4D"/>
<path d="M649.985 511.851C650.258 510.656 651.217 509.874 652.125 509.151C656.951 512.655 660.959 517.133 665.106 521.398C669.991 526.658 674.921 531.896 679.504 537.437C679.282 537.842 678.825 538.647 678.603 539.052C676.33 543.715 670.877 544.741 667.106 547.758C666.944 547.677 666.626 547.515 666.464 547.426C664.029 545.692 661.778 543.715 659.475 541.804C656.354 539.052 652.701 536.478 651.335 532.346C649.306 525.787 647.867 518.565 649.985 511.851Z" fill="#286F4D"/>
<path d="M622.282 518.351C622.643 517.222 623.795 516.801 624.695 516.197C623.352 521.479 623.477 526.99 622.813 532.383C622.451 536.455 622.208 540.543 621.898 544.622C620.415 546.113 618.931 547.603 617.426 549.064C615.175 548.429 613.079 547.389 611.094 546.179C615.064 537.001 618.134 527.455 622.282 518.351Z" fill="#286F4D"/>
<path d="M1318.75 519.096C1321.12 518.911 1323.78 519.546 1324.87 521.892C1325.69 525.758 1325.99 530.28 1329.35 532.929C1331.33 535.445 1334.33 536.81 1336.69 538.934C1338.13 540.432 1339.25 542.579 1338.52 544.696C1337.37 547.847 1334.44 549.875 1331.63 551.447C1327.06 552.76 1322.45 554 1317.91 555.423C1316.51 554.007 1315.82 550.731 1313.42 551.1C1307.33 555.032 1301.48 559.348 1295.47 563.421C1294.84 562.558 1294.23 561.694 1293.58 560.876C1293.66 560.307 1293.82 559.186 1293.9 558.618C1293.85 557.194 1293.84 555.77 1293.88 554.354C1295.2 549.034 1298.65 544.659 1301.66 540.218C1303.28 535.939 1302.72 531.114 1301.57 526.791C1301.18 525.028 1299.94 523.707 1298.41 522.851C1299.49 522.364 1300.59 521.87 1301.68 521.353C1303.27 525.301 1304.77 529.439 1307.82 532.538C1310.7 535.887 1315.58 537.429 1319.85 536.212C1321.76 535.688 1323.73 533.925 1323.27 531.756C1322.42 527.307 1319.51 523.574 1318.75 519.096Z" fill="#286F4D"/>
<path d="M831.835 530.716C834.064 532.531 836.455 534.146 838.765 535.865C838.661 547.278 838.588 558.692 838.314 570.105C838.241 570.902 838.108 571.691 837.923 572.48C828.507 575.181 818.596 574.347 809.01 573.203C802.767 572.399 796.442 571.3 790.723 568.548C791.062 563.28 792.627 558.197 793.785 553.077C794.339 550.923 794.782 548.739 795.616 546.673C803.704 550.075 813.386 550.864 821.422 546.902C827.488 543.833 831.09 537.319 831.835 530.716Z" fill="#286F4D"/>
<path d="M604.039 552.339C603.404 551.166 604.327 549.89 605.648 550.222C606.467 550.207 607.286 550.207 608.113 550.215C612.585 550.2 617.064 550.215 621.536 550.2C627.219 550.222 632.908 550.089 638.591 550.237C641.078 551.307 640.79 554.774 641.38 557.061C641.476 557.703 641.653 558.987 641.749 559.621C637.882 560.551 638.03 565.464 639.764 568.209C640.842 569.662 642.93 569.131 644.487 569.33C644.893 571.034 645.365 572.717 645.705 574.443C645.631 575.218 645.542 576 645.439 576.789C637.425 577.106 629.396 576.76 621.374 576.944C617.795 576.796 614.112 577.328 610.6 576.671C610.4 576.472 610.002 576.059 609.795 575.859C607.744 568.054 605.958 560.175 604.039 552.339ZM621.758 559.016C617.61 562.174 621.972 569.677 626.746 568.482C631.551 565.545 626.798 556.936 621.758 559.016Z" fill="#286F4D"/>
<path d="M1332.85 554.516C1333.25 555.527 1333.67 556.53 1334.1 557.555C1335.26 557.297 1336.39 556.936 1337.54 556.567C1337.87 559.164 1337.31 561.724 1336.77 564.254C1338.31 569.633 1340.35 574.9 1341.66 580.36C1341.53 580.647 1341.28 581.216 1341.16 581.503C1335.43 585.937 1327.93 586.69 1320.97 587.464C1318.52 587.664 1316.07 587.664 1313.63 587.671C1313.77 587.28 1314.06 586.505 1314.21 586.114C1313.82 585.871 1313.04 585.384 1312.65 585.14C1317.45 581.909 1322.16 578.523 1326.97 575.291C1327.92 574.45 1329.73 573.86 1329.43 572.296C1327.45 568.829 1324.91 565.73 1322.74 562.395C1321.77 560.993 1320.81 559.592 1319.85 558.205C1324.2 557.061 1328.62 556.109 1332.85 554.516Z" fill="#286F4D"/>
<path d="M646.317 506.193C647.933 507.661 650.361 507.808 652.125 509.151C651.217 509.874 650.258 510.656 649.985 511.851C647.867 518.565 649.306 525.788 651.336 532.346C648.14 530.443 644.362 531.099 640.834 531.048C634.798 530.767 628.798 531.69 622.813 532.383C623.477 526.99 623.352 521.479 624.695 516.197C625.662 515.053 626.06 513.6 626.481 512.198C627.174 510.339 628.923 509.129 630.621 508.258C630.392 510.973 629.684 513.932 630.931 516.514C632.097 518.72 634.975 518.771 637.122 518.366C642.701 517.539 647.136 511.763 646.317 506.193Z" fill="#F16236"/>
<path d="M1358.77 503.005C1360.06 503.337 1361.34 503.743 1362.63 504.186C1362.77 505.838 1362.95 507.498 1363.27 509.136C1362.04 509.476 1360.83 509.83 1359.62 510.191C1359.33 507.786 1359.04 505.403 1358.77 503.005Z" fill="#D6492D"/>
<path d="M1010.77 284.783C1016.1 279.928 1023.21 277.08 1030.44 276.962C1037.48 276.94 1044.52 276.999 1051.56 276.933C1082.12 277.014 1112.68 276.896 1143.24 276.999C1143.53 290.81 1143.1 304.628 1143.43 318.432C1186.49 318.734 1229.56 318.366 1272.61 318.594C1272.8 330.723 1272.42 342.867 1272.93 354.988C1279.43 355.637 1285.98 354.944 1292.5 355.298C1296.59 355.674 1300.99 354.243 1304.78 356.39C1294.12 364.513 1283.42 372.584 1272.73 380.684C1272.69 393.817 1272.71 406.949 1272.73 420.088C1272.56 429 1273.08 437.949 1272.42 446.847C1270.9 457.389 1263.42 466.796 1253.47 470.618C1248.62 472.632 1243.29 472.919 1238.1 472.691C1235.42 471.636 1232.57 471.023 1229.99 469.74C1230.67 469.599 1231.26 469.29 1231.77 468.803C1239.22 462.207 1243.72 452.41 1243.69 442.442C1243.71 406.831 1243.72 371.219 1243.69 335.607C1172.39 335.629 1101.1 335.614 1029.8 335.614C1029.79 354.14 1029.78 372.665 1029.8 391.19C1031.46 391.168 1033.12 391.168 1034.79 391.175C1034.78 390.083 1034.81 388.992 1034.82 387.907C1044.95 387.9 1055.06 387.9 1065.19 387.907C1065.17 389.014 1065.14 390.12 1065.06 391.234C1061.69 391.183 1058.3 391.072 1054.94 391.264C1050.89 393.846 1047.63 397.535 1045.18 401.644C1015.24 401.6 985.288 401.74 955.349 401.578C957.946 397.505 961.171 393.411 965.533 391.212C977.274 391.124 989.022 391.197 1000.77 391.175C1000.78 362.993 1000.77 334.803 1000.78 306.62C1000.87 298.372 1004.63 290.286 1010.77 284.783ZM1031.46 301.058C1029.51 302.061 1029.35 304.636 1030.02 306.473C1030.75 308.059 1032.64 308.332 1034.19 308.295C1063.45 308.236 1092.71 308.295 1121.97 308.273C1124.36 308.199 1126.83 308.561 1129.15 307.882C1131.13 306.893 1131.17 304.355 1130.58 302.518C1129.83 300.918 1127.97 300.608 1126.4 300.652C1095.91 300.608 1065.42 300.674 1034.92 300.637C1033.77 300.726 1032.52 300.534 1031.46 301.058ZM1032.12 316.484C1028.22 317.429 1029.23 324.423 1033.41 323.877C1051.37 323.943 1069.34 323.943 1087.3 323.877C1092.01 324.327 1091.93 316.056 1087.3 316.329C1068.91 316.418 1050.49 316.064 1032.12 316.484Z" fill="#2B6E4D"/>
<path d="M1034.81 362.041C1044.93 362.026 1055.05 362.034 1065.16 362.034C1065.17 368.976 1065.16 375.926 1065.17 382.876C1055.05 382.89 1044.93 382.883 1034.81 382.876C1034.83 375.933 1034.81 368.984 1034.81 362.041Z" fill="#2B6E4D"/>
<path d="M1070.19 362.034C1100.48 362.034 1130.76 362.026 1161.05 362.041C1161.06 368.984 1161.06 375.933 1161.06 382.876C1130.76 382.883 1100.48 382.883 1070.18 382.876C1070.19 375.933 1070.18 368.984 1070.19 362.034Z" fill="#2B6E4D"/>
<path d="M1166.08 362.034C1190.27 362.034 1214.45 362.026 1238.63 362.034C1238.64 368.983 1238.63 375.926 1238.64 382.876C1214.45 382.883 1190.27 382.883 1166.08 382.876C1166.08 375.933 1166.08 368.983 1166.08 362.034Z" fill="#2B6E4D"/>
<path d="M1070.18 387.907C1100.47 387.9 1130.75 387.907 1161.03 387.9C1161.04 388.999 1161.09 390.098 1161.13 391.197C1162.78 391.175 1164.42 391.168 1166.08 391.175C1166.07 390.076 1166.07 388.992 1166.08 387.907C1190.26 387.907 1214.45 387.9 1238.63 387.907C1238.65 394.849 1238.63 401.799 1238.64 408.749C1229.13 408.764 1219.62 408.734 1210.11 408.756L1210.56 409.922C1207.49 402.234 1201.08 396.037 1193.32 393.167C1184.37 389.715 1173.81 390.888 1165.82 396.192C1156.7 401.829 1151.42 412.711 1152.08 423.349C1151.95 439.794 1152.05 456.246 1152.05 472.698V473.207C1152.02 476.763 1152.03 480.312 1152.04 483.875C1152.03 485.874 1152.02 487.874 1152.02 489.888V490.367C1152.02 530.812 1152.01 571.256 1152.03 611.7C1151.97 614.592 1152.36 617.55 1151.73 620.405C1150.91 622.929 1148.08 623.998 1145.62 623.762C1142.25 623.688 1138.87 623.578 1135.52 623.984C1131.53 623.607 1127.28 623.327 1123.38 624.153C1119.75 623.438 1116.04 623.74 1112.37 623.718C1100.86 623.725 1089.35 623.644 1077.84 623.77C1055.82 623.711 1033.79 623.703 1011.77 623.718C1006.5 623.88 1001.16 623.342 995.944 623.991C991.731 623.482 987.487 623.747 983.259 623.703C969.444 623.703 955.637 623.615 941.822 623.703C930.302 623.644 918.775 623.711 907.248 623.674C901.883 623.747 896.474 623.364 891.175 624.36L891.367 623.703C888.909 623.688 886.452 623.733 884.002 623.718C881.663 622.914 880.415 620.796 879.7 618.576C879.796 618.074 879.98 617.078 880.076 616.584C880.076 592.422 880.039 568.253 880.091 544.099C885.168 551.816 890.223 559.54 895.278 567.272C899.654 568.799 904.06 570.238 908.458 571.735C910.68 572.281 912.886 573.838 915.189 573.506C921.808 570.053 927.941 565.619 933.453 560.588C935.756 565.361 938.449 570.518 943.46 572.916C948.213 575.04 953.496 572.79 957.526 570.119C959.865 568.725 962.345 566.364 965.289 567.353C969.37 568.828 972.197 572.945 976.691 573.439C979.945 573.616 982.196 570.791 985.015 569.64C988.122 568.128 991.649 568.733 994.97 568.401C995.553 567.508 995.45 566.726 994.653 566.069C990.063 565.213 985 565.877 981.148 568.666C979.51 569.669 977.643 571.322 975.599 570.348C971.436 568.563 968.271 564.151 963.378 564.343C958.891 564.852 955.784 568.674 951.652 570.142C949.091 571.167 945.947 571.514 943.586 569.817C939.682 567.139 937.187 562.786 935.829 558.33C938.892 554.656 942.014 550.643 942.619 545.736C943.062 542.269 943.335 537.887 940.346 535.423C937.852 533.645 934.796 535.784 933.667 538.152C930.59 544.113 931.151 551.152 932.523 557.519C927.461 562.712 921.38 566.851 915.07 570.392C914.967 569.433 914.908 568.474 914.901 567.523C915.321 562.86 915.882 558.19 915.897 553.512C903.839 535.327 891.92 517.045 880.002 498.763C880.179 472.587 879.973 446.404 880.106 420.236C880.452 408.461 888.408 397.432 899.403 393.263C906.606 390.283 914.524 391.367 922.103 391.183C915.698 398.051 911.432 407.111 911.587 416.628C911.654 452.203 911.41 487.8 911.713 523.36C982.964 523.279 1054.22 523.353 1125.48 523.323C1125.51 487.748 1125.49 452.173 1125.49 416.599C1125.49 410.682 1127.64 404.794 1131.48 400.279C1136.17 394.54 1143.45 391.441 1150.76 391.043C1145.59 391.279 1140.42 391.138 1135.24 391.175C1134.52 391.087 1133.89 391.279 1133.35 391.743C1129.73 394.34 1126.62 397.682 1124.45 401.585C1100.04 401.718 1075.63 401.629 1051.21 401.629C1055.65 395.617 1062.74 391.714 1070.2 391.249C1070.18 390.128 1070.18 389.014 1070.18 387.907ZM1063 540.55C1062.51 543.442 1062.52 546.415 1062.84 549.329C1063.79 551.196 1066.41 550.414 1068.13 550.643C1069.83 550.421 1072.46 551.174 1073.39 549.307C1073.63 546.4 1073.67 543.442 1073.16 540.572C1069.79 540.085 1066.37 540.181 1063 540.55ZM1080.81 540.705L1080.33 541.022C1079.86 543.685 1079.98 546.445 1080.26 549.13C1080.49 550.687 1082.38 550.62 1083.59 550.613C1097.37 550.532 1111.16 550.672 1124.94 550.554C1126.91 550.443 1126.17 547.699 1126.43 546.393C1126.18 544.349 1127.4 540.343 1124.22 540.336C1110.93 540.248 1097.64 540.343 1084.37 540.277C1083.17 540.351 1081.9 540.174 1080.81 540.705ZM1044.17 555.645C1043.5 558.396 1043.62 561.274 1043.82 564.085C1043.79 565.634 1045.57 565.663 1046.69 565.649C1072.52 565.656 1098.36 565.649 1124.19 565.627C1127.14 565.951 1126.25 562.27 1126.45 560.455C1126.21 558.883 1127.01 556.582 1125.43 555.608C1122.83 555.239 1120.2 555.475 1117.59 555.438C1101.36 555.423 1085.12 555.423 1068.89 555.416C1060.65 555.571 1052.39 555.136 1044.17 555.645ZM1031.29 570.924C1030.01 571.942 1030.5 573.764 1030.36 575.188C1030.53 576.966 1029.95 579.017 1031 580.596C1031.98 581.068 1033.13 580.839 1034.2 580.928C1044.28 580.935 1054.36 580.876 1064.44 580.95C1065.39 581.068 1066.5 580.647 1066.68 579.592C1067.03 576.715 1066.96 573.794 1066.54 570.938C1059.7 570.37 1052.81 570.835 1045.96 570.695C1041.07 570.872 1036.15 570.348 1031.29 570.924ZM1073.53 572.303C1073.57 575.129 1072.8 578.264 1074.23 580.861C1090.4 581.009 1106.57 580.883 1122.73 580.957C1123.86 580.788 1125.35 581.26 1126.16 580.19C1126.6 577.586 1126.54 574.908 1126.3 572.296C1126.34 570.783 1124.56 570.688 1123.49 570.702C1108 570.68 1092.51 570.695 1077.01 570.695C1075.75 570.784 1073.49 570.429 1073.53 572.303ZM911.809 586.402C911.543 589.242 911.381 592.127 911.816 594.96C912.2 596.096 913.698 595.978 914.665 596.067C926.465 596.022 938.272 596.052 950.072 596.081C951.806 595.882 953.998 596.502 955.415 595.321C956.161 592.946 955.681 590.283 955.71 587.804C955.843 586.313 954.19 585.834 953.009 585.974C940.707 585.944 928.406 586.063 916.104 585.945C914.657 585.9 913.211 586.04 911.809 586.402ZM959.961 586.667C959.769 589.589 959.74 592.518 959.991 595.432C962.175 596.465 964.655 595.926 966.987 596.052C971.407 595.89 975.864 596.391 980.263 595.771C980.691 593.175 980.654 590.533 980.639 587.914C980.691 586.889 979.901 585.849 978.801 586.026C974.381 585.856 969.953 586.085 965.54 585.967C963.666 585.996 961.658 585.694 959.961 586.667ZM984.897 586.358C984.786 589.028 984.631 591.721 984.845 594.399C984.705 595.58 985.93 595.978 986.89 596C990.078 596.17 993.302 596.199 996.476 595.749C996.926 592.629 997 589.427 996.498 586.313C992.668 585.819 988.72 585.731 984.897 586.358ZM1030.61 586.336C1030.24 589.464 1030.24 592.643 1030.66 595.771C1031.82 595.875 1032.98 595.993 1034.16 596.015C1062.19 596.037 1090.21 596.008 1118.24 596.015C1120.85 595.934 1123.56 596.384 1126.09 595.513C1126.54 592.754 1126.57 589.921 1126.21 587.154C1125.82 585.981 1124.45 586.011 1123.46 585.996C1093.19 585.989 1062.93 586.026 1032.67 585.996C1032.15 586.077 1031.12 586.254 1030.61 586.336Z" fill="#2B6E4D"/>
<path d="M920.546 401.607C922.967 397.461 926.339 393.942 930.265 391.197C939.217 391.146 948.176 391.175 957.127 391.183C954.116 394.237 951.541 397.734 949.718 401.622C939.992 401.652 930.265 401.688 920.546 401.607Z" fill="#2B6E4D"/>
<path d="M918.258 406.676C928.096 406.654 937.933 406.683 947.77 406.654C946.006 412.563 946.442 418.76 946.397 424.839C936.479 424.847 926.568 424.839 916.65 424.847C916.701 418.76 916.148 412.511 918.258 406.676Z" fill="#2B6E4D"/>
<path d="M953.054 406.676C983.008 406.646 1012.95 406.69 1042.91 406.654C1040.86 412.475 1041.33 418.694 1041.36 424.743C1011.38 424.972 981.399 424.773 951.423 424.847C951.445 418.76 950.995 412.519 953.054 406.676Z" fill="#2B6E4D"/>
<path d="M1048.3 406.69C1072.89 406.631 1097.49 406.683 1122.09 406.668C1119.99 412.504 1120.52 418.753 1120.46 424.839C1095.75 424.854 1071.05 424.839 1046.35 424.847C1046.37 418.753 1045.81 412.43 1048.3 406.69Z" fill="#2B6E4D"/>
<path d="M1211.9 413.78C1220.81 413.766 1229.73 413.773 1238.63 413.773C1238.64 420.723 1238.63 427.665 1238.64 434.615C1230.06 434.6 1221.48 434.659 1212.91 434.578C1212.9 434.01 1212.88 432.866 1212.87 432.291C1212.54 426.123 1213.53 419.823 1211.9 413.78Z" fill="#2B6E4D"/>
<path d="M916.65 429.908C926.568 429.908 936.486 429.9 946.397 429.908C946.375 435.972 946.471 442.037 946.346 448.094C936.427 447.983 926.502 448.234 916.591 447.968C916.716 441.948 916.613 435.928 916.65 429.908Z" fill="#2B6E4D"/>
<path d="M951.423 429.908C981.392 429.915 1011.36 429.893 1041.33 429.923C1041.31 435.972 1041.33 442.022 1041.32 448.079C1011.36 448.079 981.399 448.072 951.438 448.086C951.401 442.022 951.43 435.965 951.423 429.908Z" fill="#2B6E4D"/>
<path d="M1046.35 429.908C1071.05 429.908 1095.76 429.9 1120.47 429.908C1120.46 435.972 1120.48 442.029 1120.45 448.094C1095.74 448.035 1071.03 448.145 1046.32 448.035C1046.38 441.992 1046.31 435.95 1046.35 429.908Z" fill="#2B6E4D"/>
<path d="M1212.88 439.632C1221.45 439.639 1230.02 439.654 1238.6 439.632C1239.15 447.002 1237.07 454.527 1232.65 460.473C1228.34 460.503 1224.02 460.473 1219.71 460.466C1219.62 460.65 1219.45 461.019 1219.37 461.204C1214.65 455.117 1212.56 447.275 1212.88 439.632Z" fill="#2B6E4D"/>
<path d="M825.038 459.573C831.754 454.94 838.632 450.543 845.414 445.999C846.978 448.374 848.594 450.72 850.1 453.14C847.96 454.527 845.834 455.944 843.709 457.353C841.156 459.042 838.61 460.739 836.049 462.429C833.85 463.867 831.658 465.321 829.459 466.781C828.071 464.347 825.99 462.141 825.038 459.573Z" fill="#2B6E4D"/>
<path d="M916.635 453.11C926.516 453.059 936.405 453.162 946.287 453.059C946.552 459.116 946.331 465.195 946.405 471.267C936.486 471.282 926.568 471.274 916.65 471.274C916.635 465.217 916.665 459.16 916.635 453.11Z" fill="#2B6E4D"/>
<path d="M951.681 453.125C981.561 453.059 1011.44 453.125 1041.32 453.096C1041.34 459.138 1041.3 465.18 1041.34 471.223C1011.37 471.348 981.392 471.237 951.423 471.274C951.438 465.298 951.379 459.315 951.445 453.347L951.681 453.125Z" fill="#2B6E4D"/>
<path d="M1046.34 453.103C1071.04 453.081 1095.74 453.125 1120.44 453.081C1120.51 459.145 1120.45 465.21 1120.46 471.274C1095.79 471.304 1071.12 471.223 1046.45 471.311C1046.19 465.247 1046.41 459.168 1046.34 453.103Z" fill="#2B6E4D"/>
<path d="M916.65 476.343C926.568 476.343 936.486 476.335 946.397 476.35C946.375 482.407 946.464 488.471 946.353 494.529C936.442 494.455 926.524 494.61 916.613 494.447C916.687 488.412 916.62 482.377 916.65 476.343Z" fill="#2B6E4D"/>
<path d="M951.423 476.343C981.399 476.365 1011.38 476.291 1041.35 476.38C1041.29 482.422 1041.34 488.471 1041.32 494.514C1011.34 494.44 981.347 494.669 951.379 494.403C951.482 488.383 951.393 482.363 951.423 476.343Z" fill="#2B6E4D"/>
<path d="M1046.35 476.343C1071.05 476.343 1095.76 476.335 1120.47 476.35C1120.45 482.407 1120.49 488.464 1120.45 494.521C1095.75 494.492 1071.03 494.551 1046.33 494.499C1046.35 488.442 1046.33 482.392 1046.35 476.343Z" fill="#2B6E4D"/>
<path d="M916.628 499.575C926.524 499.457 936.42 499.597 946.316 499.508C946.508 505.75 946.353 512.006 946.405 518.255C936.486 518.262 926.568 518.248 916.65 518.262C916.628 512.028 916.679 505.801 916.628 499.575Z" fill="#2B6E4D"/>
<path d="M951.511 499.501C981.451 499.575 1011.38 499.516 1041.32 499.53C1041.33 505.772 1041.31 512.006 1041.32 518.248C1011.36 518.262 981.392 518.248 951.423 518.255C951.474 512.006 951.305 505.75 951.511 499.501Z" fill="#2B6E4D"/>
<path d="M1046.33 499.545C1071.03 499.501 1095.73 499.575 1120.42 499.508C1120.51 505.757 1120.45 512.006 1120.46 518.262C1095.77 518.262 1071.08 518.226 1046.38 518.277C1046.28 512.036 1046.38 505.787 1046.33 499.545Z" fill="#2B6E4D"/>
<path d="M1205.21 515.267C1209.42 513.688 1214.6 515.584 1216.81 519.509C1219.68 524.489 1219.59 530.524 1218.94 536.064C1217.33 547.33 1212.61 558.234 1205.03 566.777C1201.38 561.34 1199.2 554.973 1197.68 548.636C1195.91 540.543 1195.54 531.867 1198.25 523.936C1199.52 520.424 1201.61 516.772 1205.21 515.267Z" fill="#2B6E4D"/>
<path d="M605.028 540.07C604.202 538.152 606.659 536.677 607.626 535.194C606.755 536.81 605.899 538.447 605.028 540.07Z" fill="#2B6E4D"/>
<path d="M935.505 540.72C936.125 539.259 937.032 537.392 938.914 537.54C940.774 540.734 940.22 544.704 939.224 548.09C938.132 550.48 937.069 553.24 934.767 554.715C933.926 550.097 933.771 545.154 935.505 540.72Z" fill="#2B6E4D"/>
<path d="M1219.03 556.382C1227.31 551.565 1237.1 549.359 1246.65 549.949C1250.85 550.355 1255.55 551.203 1258.5 554.523C1260.46 556.677 1260.4 559.99 1259.1 562.476C1257.19 566.313 1253.77 569.153 1250.23 571.44C1248.82 571.02 1247.4 570.606 1245.94 570.643C1233.89 570.769 1221.84 570.68 1209.8 570.717C1208.14 570.754 1206.52 570.378 1204.96 569.913C1209.21 564.985 1213.3 559.68 1219.03 556.382Z" fill="#2B6E4D"/>
<path d="M684.928 561.045C685.747 556.618 690.817 553.335 695.141 554.995C699.148 556.582 701.768 560.315 703.687 564.003C708.513 573.801 709.17 585.303 706.89 595.882C698.492 591.131 691.872 583.547 687.607 574.959C685.585 570.665 683.961 565.826 684.928 561.045Z" fill="#2B6E4D"/>
<path d="M724.498 587.951C725.944 583.384 732.519 581.245 735.914 584.963C739.877 589.537 739.914 596.148 739.294 601.851C738.681 607.767 736.165 613.205 733.73 618.539C735.508 620.051 737.014 621.859 738.777 623.393L739.471 623.268C737.803 624.397 736.202 625.636 734.741 627.03C727.56 619.52 719.605 612.755 711.037 606.882C703.052 611.353 694.248 614.629 685.075 615.293C678.434 615.772 671.497 614.82 665.718 611.353C665.674 609.7 665.829 608.048 666.257 606.454C667.519 601.504 668.523 596.48 669.246 591.419C678.389 587.634 689.053 588.512 697.901 592.71C708.1 598.125 717.73 604.61 726.564 612.046C723.708 604.484 721.575 595.808 724.498 587.951Z" fill="#2B6E4D"/>
<path d="M1345.39 594.222C1350.21 595.904 1354.95 598.339 1358.42 602.16C1360.43 604.366 1361.76 607.694 1360.42 610.586C1358.87 613.884 1355.36 615.573 1352.12 616.79C1350.54 609.081 1347.75 601.71 1345.39 594.222Z" fill="#2B6E4D"/>
<path d="M706.499 641.69C713.31 639.794 720.601 640.849 727.154 643.239C727.029 645.43 727.14 647.636 727.545 649.805C726.04 650.506 724.453 651.111 722.756 651.059C712.83 651.037 702.919 651.517 693.001 651.775C695.953 646.825 700.927 643.165 706.499 641.69Z" fill="#2B6E4D"/>
<path d="M1292.52 643.247C1298.39 641.122 1304.78 640.03 1311 641.173C1317.37 642.273 1323.31 646.087 1326.65 651.679C1317.85 651.546 1309.04 651.281 1300.25 650.904C1297.49 650.978 1294.58 651.377 1292.14 649.776C1292.54 647.621 1292.67 645.423 1292.52 643.247Z" fill="#2B6E4D"/>
<path d="M1143.26 251.96C1184.13 251.746 1225 251.937 1265.87 251.871C1275.16 251.989 1284.47 251.635 1293.75 252.048C1293.72 260.267 1293.8 268.493 1293.69 276.712C1294.7 277.036 1295.74 277.316 1296.79 277.56C1295.86 277.752 1294.95 277.951 1294.04 278.158C1293.29 287.439 1293.99 296.793 1293.74 306.104C1293.68 310.206 1293.79 314.308 1293.74 318.41C1286.7 318.867 1279.65 318.521 1272.61 318.594C1229.56 318.366 1186.49 318.734 1143.43 318.432C1143.1 304.628 1143.53 290.81 1143.24 276.999C1143.2 268.655 1143.13 260.304 1143.26 251.96Z" fill="#3F6B52"/>
<path d="M1263.69 658.769C1265.44 658.363 1267.21 658.054 1269.01 657.913C1267.36 660.37 1268.84 662.952 1270.11 665.18C1271.82 665.704 1273.51 666.287 1275.19 666.914C1275.33 667.497 1275.61 668.67 1275.75 669.253C1272.76 669.268 1269.78 669.275 1266.8 669.26C1265.79 665.748 1264.29 662.384 1263.69 658.769Z" fill="#111E24"/>
<path d="M1365.42 662.318C1368.41 661.44 1371.42 660.621 1374.43 659.78C1375.5 659.227 1376.49 660.053 1377.24 660.761C1376.58 661.551 1375.92 662.362 1375.02 662.879C1371.45 665.04 1367.87 667.165 1364.27 669.26C1363.5 667.762 1362.7 666.287 1362.17 664.701C1363.98 665.225 1365.98 664.59 1365.42 662.318Z" fill="#111E24"/>
<path d="M1293.69 276.712C1297.97 276.557 1302.23 276.962 1306.5 277.213C1321.09 278.475 1333.67 291.865 1333.34 306.628C1321.92 306.753 1310.5 306.576 1299.09 306.724C1297.28 306.761 1295.5 306.473 1293.74 306.104C1293.99 296.793 1293.29 287.439 1294.04 278.158C1294.95 277.951 1295.86 277.752 1296.79 277.56C1295.74 277.317 1294.7 277.036 1293.69 276.712Z" fill="#114F36"/>
<path d="M1031.46 301.058C1032.52 300.534 1033.77 300.726 1034.92 300.637C1065.42 300.674 1095.91 300.608 1126.4 300.652C1127.97 300.608 1129.83 300.918 1130.58 302.519C1131.17 304.356 1131.13 306.893 1129.15 307.882C1126.83 308.561 1124.36 308.199 1121.97 308.273C1092.71 308.295 1063.45 308.236 1034.19 308.295C1032.64 308.332 1030.75 308.059 1030.02 306.473C1029.35 304.636 1029.51 302.061 1031.46 301.058Z" fill="#125738"/>
<path d="M1032.12 316.484C1050.49 316.064 1068.91 316.418 1087.3 316.329C1091.93 316.056 1092.01 324.327 1087.3 323.877C1069.34 323.943 1051.37 323.943 1033.41 323.877C1029.23 324.423 1028.22 317.429 1032.12 316.484Z" fill="#125738"/>
<path d="M911.809 586.402C913.211 586.04 914.657 585.9 916.104 585.945C928.406 586.063 940.707 585.945 953.009 585.974C954.19 585.834 955.843 586.313 955.71 587.804C955.681 590.283 956.161 592.946 955.415 595.322C953.998 596.502 951.806 595.882 950.072 596.081C938.272 596.052 926.465 596.022 914.665 596.067C913.698 595.978 912.2 596.096 911.816 594.96C911.381 592.127 911.543 589.242 911.809 586.402Z" fill="#125738"/>
<path d="M959.961 586.668C961.658 585.694 963.666 585.996 965.54 585.967C969.953 586.085 974.381 585.856 978.801 586.026C979.901 585.849 980.691 586.889 980.639 587.914C980.654 590.534 980.691 593.175 980.263 595.772C975.864 596.391 971.407 595.89 966.987 596.052C964.655 595.927 962.175 596.465 959.991 595.432C959.74 592.518 959.769 589.589 959.961 586.668Z" fill="#125738"/>
<path d="M984.897 586.358C988.72 585.731 992.668 585.819 996.498 586.313C997 589.427 996.926 592.629 996.476 595.749C993.302 596.2 990.077 596.17 986.889 596C985.93 595.978 984.705 595.58 984.845 594.399C984.631 591.721 984.786 589.028 984.897 586.358Z" fill="#125738"/>
<path d="M1293.74 306.104C1295.5 306.473 1297.28 306.761 1299.09 306.724C1310.5 306.576 1321.92 306.753 1333.34 306.628C1333.29 316.005 1333.42 325.389 1333.34 334.766C1323.83 341.974 1314.31 349.189 1304.78 356.39C1300.99 354.243 1296.59 355.674 1292.5 355.298C1285.98 354.944 1279.43 355.637 1272.93 354.988C1272.42 342.867 1272.8 330.723 1272.61 318.594C1279.65 318.521 1286.7 318.867 1293.74 318.41C1293.79 314.308 1293.68 310.206 1293.74 306.104Z" fill="#145B3A"/>
<path d="M1350.04 322.121C1355.28 318.1 1358.31 311.814 1359.71 305.477C1359.9 313.651 1359.79 321.833 1359.76 330.007C1357.8 334.05 1355.84 338.101 1353.84 342.121C1352.87 344.224 1351.28 345.987 1349.49 347.419C1348.29 348.282 1346.68 348.37 1345.62 349.44C1342.08 352.789 1338.84 356.441 1335.51 359.99C1334.24 361.473 1331.92 361.635 1330.92 363.369C1328.99 366.895 1324.62 367.943 1322.34 371.226C1319.7 374.959 1315.12 376.213 1311.69 378.995C1308.51 382.846 1303.85 384.897 1299.88 387.804C1297.05 389.987 1293.59 391.227 1290.99 393.728C1289.01 395.181 1286.95 396.797 1284.45 397.203C1284.37 398.612 1284.96 399.903 1285.88 400.958C1292.4 408.845 1299.21 416.488 1306.09 424.065C1315.88 435.065 1325.77 445.991 1335.51 457.057C1332.66 460.186 1328.1 457.596 1324.58 459.116C1308.84 447.518 1293.46 435.426 1277.79 423.733C1276.17 422.419 1274.47 421.21 1272.73 420.088C1272.71 406.949 1272.69 393.816 1272.73 380.684C1283.42 372.584 1294.12 364.513 1304.78 356.39C1314.31 349.189 1323.83 341.974 1333.34 334.766C1338.91 330.546 1344.47 326.333 1350.04 322.121Z" fill="#E63D16"/>
<path d="M1353.84 342.122C1355.84 338.101 1357.8 334.051 1359.76 330.008C1359.88 345.788 1359.75 361.569 1359.81 377.35C1357.68 379.829 1355.62 382.352 1353.99 385.2C1351.21 388.276 1348.09 391.05 1345.25 394.082C1343.35 396.207 1340.48 397.07 1338.58 399.173C1336.74 401.054 1334.92 402.943 1333.05 404.78C1331.01 406.735 1329.25 409.118 1326.58 410.261C1324.04 411.464 1322.84 414.312 1320.31 415.529C1317.54 416.872 1315.57 419.447 1312.66 420.531C1310.33 421.431 1307.81 422.117 1306.09 424.065C1299.21 416.488 1292.4 408.845 1285.88 400.958C1284.96 399.903 1284.37 398.612 1284.45 397.203C1286.95 396.797 1289.01 395.181 1290.99 393.728C1293.59 391.227 1297.05 389.988 1299.88 387.804C1303.85 384.897 1308.51 382.846 1311.69 378.995C1315.12 376.214 1319.7 374.959 1322.34 371.226C1324.62 367.943 1328.99 366.896 1330.92 363.369C1331.92 361.635 1334.24 361.473 1335.51 359.99C1338.84 356.442 1342.08 352.79 1345.62 349.44C1346.68 348.37 1348.29 348.282 1349.49 347.419C1351.28 345.988 1352.87 344.224 1353.84 342.122Z" fill="#E84B26"/>
<path d="M1353.99 385.2C1355.62 382.352 1357.68 379.829 1359.81 377.35C1359.78 411.088 1359.81 444.825 1359.79 478.563C1359.79 480.304 1359.26 481.987 1358.7 483.624C1355.75 478.932 1351.5 475.258 1347.98 471.016C1343.8 466.376 1339.63 461.735 1335.51 457.058C1325.77 445.991 1315.88 435.065 1306.09 424.065C1307.81 422.117 1310.33 421.431 1312.66 420.531C1315.57 419.446 1317.54 416.872 1320.31 415.529C1322.84 414.312 1324.04 411.464 1326.58 410.261C1329.25 409.118 1331.01 406.735 1333.05 404.78C1334.92 402.943 1336.74 401.054 1338.58 399.173C1340.48 397.07 1343.35 396.207 1345.25 394.082C1348.09 391.05 1351.21 388.276 1353.99 385.2Z" fill="#E7512E"/>
<path d="M1277.79 423.733C1293.46 435.426 1308.84 447.518 1324.58 459.116C1329.9 463.085 1335.08 467.261 1340.43 471.201C1346.27 475.848 1353 479.751 1356.73 486.472C1354.39 488.811 1351.21 490.39 1347.85 490.309C1282.58 490.345 1217.3 490.25 1152.02 490.368V489.888C1154.33 490.028 1156.64 489.977 1158.95 489.763C1158.72 488.169 1158.57 486.568 1158.53 484.975C1159.2 484.628 1159.88 484.288 1160.58 483.971C1163.48 484.134 1166.38 483.927 1169.29 483.853C1194.85 483.831 1220.41 483.846 1245.98 483.861C1251.36 483.986 1256.72 482.577 1261.43 480.002C1269.77 475.03 1275.92 466.376 1277.18 456.667C1277.51 455.11 1277.79 453.539 1277.81 451.952C1277.83 442.546 1277.27 433.125 1277.79 423.733Z" fill="#E7512E"/>
<path d="M1165.82 396.192C1173.81 390.888 1184.37 389.715 1193.32 393.167C1201.08 396.037 1207.49 402.234 1210.56 409.922C1211.12 411.161 1211.55 412.46 1211.9 413.78C1213.53 419.823 1212.54 426.123 1212.87 432.291C1210.88 432.697 1208.86 432.911 1206.85 432.874C1195.54 432.8 1184.23 432.837 1172.92 432.785C1170.29 432.829 1166.59 432.365 1165.58 435.515C1166.34 435.626 1167.12 435.736 1167.9 435.854C1167.86 436.533 1167.83 437.219 1167.79 437.905C1165.6 439.396 1167.58 442.472 1165.55 443.955C1163.6 441.196 1164.32 437.603 1162.78 434.689C1161.91 432.977 1161.3 431.155 1160.51 429.414C1158.98 427.023 1155.5 426.02 1155.27 422.833C1154.98 422.663 1154.4 422.324 1154.11 422.147C1154.3 421.896 1154.7 421.394 1154.89 421.136C1154.61 421.114 1154.08 421.07 1153.8 421.047C1153.22 421.815 1152.64 422.575 1152.08 423.349C1151.42 412.711 1156.7 401.829 1165.82 396.192Z" fill="#1C5840"/>
<path d="M1272.73 420.088C1274.47 421.21 1276.17 422.42 1277.79 423.733C1277.27 433.124 1277.83 442.546 1277.81 451.952C1277.79 453.538 1277.51 455.11 1277.18 456.666C1276.73 453.487 1276.75 450.277 1276.67 447.083C1275.25 447.009 1273.83 446.921 1272.42 446.847C1273.08 437.949 1272.56 429 1272.73 420.088Z" fill="#E7441F"/>
<path d="M1152.08 423.349C1152.64 422.575 1153.22 421.815 1153.8 421.047C1154.08 421.069 1154.61 421.114 1154.89 421.136C1154.7 421.394 1154.3 421.896 1154.11 422.147C1154.4 422.324 1154.98 422.663 1155.27 422.833C1155.5 426.02 1158.98 427.023 1160.51 429.414C1161.3 431.155 1161.91 432.977 1162.78 434.689C1164.32 437.603 1163.6 441.196 1165.55 443.955C1165.37 444.147 1165.01 444.53 1164.84 444.715C1165.46 445.135 1166.11 445.563 1166.76 445.991C1166.44 446.53 1166.13 447.076 1165.83 447.622C1167.07 452.196 1166.26 456.984 1167.07 461.624C1167.21 465.32 1166.94 469.039 1167.59 472.713C1166.57 472.713 1165.57 472.713 1164.57 472.72C1160.39 472.683 1156.22 472.728 1152.05 472.698C1152.05 456.246 1151.95 439.794 1152.08 423.349Z" fill="#13583A"/>
<path d="M1206.85 432.874C1208.86 432.911 1210.88 432.697 1212.87 432.291C1212.88 432.866 1212.9 434.01 1212.91 434.578C1212.92 436.26 1212.88 437.95 1212.88 439.632C1212.56 447.275 1214.65 455.117 1219.37 461.204C1220.75 462.724 1222.18 464.214 1223.75 465.557C1225.06 465.52 1226.38 465.527 1227.72 465.527C1227.11 466.021 1226.51 466.516 1225.92 467.01C1227.06 468.19 1228.61 468.862 1229.99 469.74C1232.57 471.023 1235.41 471.636 1238.1 472.691C1214.6 472.75 1191.09 472.698 1167.59 472.713C1166.94 469.039 1167.21 465.32 1167.07 461.624C1166.26 456.984 1167.07 452.196 1165.83 447.622C1166.13 447.076 1166.44 446.53 1166.76 445.991C1166.11 445.563 1165.46 445.135 1164.84 444.715C1165.01 444.53 1165.37 444.147 1165.55 443.955C1167.58 442.472 1165.6 439.396 1167.8 437.905C1167.83 437.219 1167.86 436.533 1167.9 435.854C1167.12 435.736 1166.34 435.626 1165.58 435.515C1166.59 432.365 1170.29 432.829 1172.92 432.785C1184.23 432.837 1195.54 432.8 1206.85 432.874Z" fill="#1E6142"/>
<path d="M1272.42 446.847C1273.83 446.921 1275.25 447.009 1276.67 447.083C1276.75 450.278 1276.73 453.487 1277.18 456.667C1275.92 466.376 1269.77 475.03 1261.43 480.002C1256.72 482.577 1251.36 483.986 1245.98 483.861C1220.41 483.846 1194.85 483.831 1169.29 483.853C1169.05 480.452 1168.42 477.088 1167.37 473.849C1166.44 473.458 1165.5 473.074 1164.57 472.72C1165.57 472.713 1166.57 472.713 1167.59 472.713C1191.09 472.698 1214.6 472.75 1238.1 472.691C1243.29 472.919 1248.62 472.632 1253.47 470.618C1263.42 466.796 1270.9 457.39 1272.42 446.847Z" fill="#E53717"/>
<path d="M843.709 457.353C845.834 455.944 847.96 454.527 850.1 453.14C860.062 468.345 870.003 483.573 880.002 498.763C891.92 517.045 903.839 535.327 915.897 553.513C909.122 558.249 902.126 562.653 895.278 567.272C890.223 559.54 885.168 551.816 880.091 544.099C877.183 539.709 874.342 535.275 871.412 530.908C870.062 528.79 868.711 526.68 867.243 524.644C868.387 521.744 869.553 518.852 870.77 515.99C874.512 521.088 877.81 526.496 881.235 531.815C882.032 533.106 883.028 534.264 884.127 535.327C886.873 534.168 888.622 531.512 891.478 530.553C886.725 522.91 881.95 515.274 876.873 507.838C878.43 506.598 880.548 505.196 880.534 502.983C880.12 500.667 878.652 498.527 876.711 497.221C874.497 496.402 873.161 498.985 872.091 500.467C871.634 500.29 870.726 499.951 870.268 499.774C870.401 499.486 870.667 498.911 870.8 498.623C869.885 497.059 868.888 495.554 867.855 494.078C863.686 487.962 859.848 481.632 855.694 475.509C851.605 469.518 847.93 463.255 843.709 457.353Z" fill="#E65C2E"/>
<path d="M829.459 466.781C831.658 465.32 833.85 463.867 836.049 462.428C839.635 468.39 843.635 474.092 847.421 479.928C851.487 486.487 855.893 492.817 860.077 499.294C862.955 503.367 865.206 507.941 868.719 511.512C867.139 514.079 865.383 516.543 863.708 519.044C852.255 501.648 840.853 484.215 829.459 466.781Z" fill="#E65C2E"/>
<path d="M1324.58 459.116C1328.1 457.596 1332.66 460.186 1335.51 457.057C1339.63 461.735 1343.8 466.375 1347.98 471.016C1351.5 475.258 1355.75 478.932 1358.7 483.624C1358.06 484.583 1357.4 485.535 1356.73 486.472C1353 479.751 1346.27 475.848 1340.43 471.2C1335.08 467.261 1329.9 463.085 1324.58 459.116Z" fill="#E5360D"/>
<path d="M836.049 462.428C838.61 460.739 841.156 459.042 843.709 457.353C847.93 463.255 851.605 469.518 855.694 475.509C853.937 476.593 852.454 478.025 851.185 479.64C849.93 479.729 848.676 479.832 847.421 479.928C843.635 474.092 839.635 468.39 836.049 462.428Z" fill="#E02900"/>
<path d="M1152.05 472.698C1156.22 472.728 1160.39 472.683 1164.57 472.72C1165.5 473.074 1166.44 473.458 1167.37 473.849C1168.42 477.088 1169.05 480.452 1169.29 483.853C1166.38 483.927 1163.48 484.133 1160.58 483.971L1159.71 483.905C1158.1 480.57 1157.63 476.734 1155.61 473.613C1154.45 473.318 1153.23 473.303 1152.05 473.207V472.698Z" fill="#E32704"/>
<path d="M1152.05 473.207C1153.23 473.303 1154.45 473.318 1155.61 473.613C1157.63 476.734 1158.1 480.57 1159.71 483.905C1157.15 483.676 1154.59 483.846 1152.04 483.875C1152.03 480.312 1152.02 476.763 1152.05 473.207Z" fill="#E01500"/>
<path d="M855.694 475.509C859.848 481.632 863.686 487.962 867.855 494.079C864.896 495.281 862.844 497.804 860.077 499.294C855.893 492.817 851.487 486.487 847.421 479.928C848.676 479.832 849.93 479.729 851.185 479.64C852.454 478.025 853.937 476.594 855.694 475.509Z" fill="#E23701"/>
<path d="M1152.04 483.875C1154.59 483.846 1157.15 483.676 1159.71 483.905L1160.58 483.971C1159.88 484.288 1159.2 484.628 1158.53 484.974C1158.57 486.568 1158.72 488.169 1158.95 489.763C1156.64 489.976 1154.33 490.028 1152.02 489.888C1152.02 487.874 1152.03 485.875 1152.04 483.875Z" fill="#E43108"/>
<path d="M867.855 494.078C868.888 495.554 869.885 497.059 870.8 498.623C870.667 498.911 870.401 499.486 870.268 499.774C868.903 502.223 869.693 505.005 870.903 507.329C870.224 508.753 869.516 510.154 868.719 511.512C865.206 507.941 862.955 503.367 860.077 499.294C862.844 497.804 864.896 495.281 867.855 494.078Z" fill="#E4400B"/>
<path d="M1338.97 505.743C1340.45 505.492 1341.93 505.352 1343.45 505.256L1343.5 505.72C1343.76 507.867 1343.97 510.029 1344.15 512.198C1342.69 512.434 1341.27 512.736 1339.84 513.039C1339.56 510.936 1339.34 508.826 1339.08 506.724L1338.97 505.743Z" fill="#D94C2E"/>
<path d="M874.106 508.753C875.028 508.457 875.951 508.162 876.873 507.838C881.95 515.274 886.725 522.91 891.478 530.553C888.622 531.513 886.873 534.168 884.127 535.327C883.028 534.264 882.032 533.106 881.235 531.815C877.81 526.496 874.512 521.088 870.77 515.99C871.752 513.519 872.822 511.084 874.106 508.753Z" fill="#E54D1B"/>
<path d="M1359.61 510.191C1360.83 509.83 1362.04 509.476 1363.27 509.136C1364.21 511.512 1361.3 511.814 1359.95 512.847L1359.88 512.914C1359.81 512.235 1359.68 510.87 1359.61 510.191Z" fill="#C02A1D"/>
<path d="M1344.24 512.191C1349.19 512.072 1353.98 513.703 1358.89 514.205C1359.14 513.88 1359.63 513.238 1359.88 512.914L1359.95 512.847C1360.07 514.02 1360.15 515.193 1360.3 516.374C1356.25 516.145 1352.3 515.053 1348.29 514.522C1347.06 514.293 1345.81 514.249 1344.6 514.205C1344.51 513.703 1344.33 512.692 1344.24 512.191Z" fill="#145E3C"/>
<path d="M828.95 512.316C830.44 512.183 831.946 512.191 833.436 512.427C837.85 515.038 841.407 518.794 845.606 521.708C849.096 524.275 852.816 526.503 856.483 528.805C857.088 529.343 858.003 529.897 857.797 530.878C857.871 533.932 856.97 536.987 855.184 539.48C854.365 540.24 853.797 541.679 852.572 541.804C850.424 541.391 848.425 540.469 846.439 539.613C843.901 538.44 841.347 537.289 838.89 535.961L838.765 535.865C836.455 534.146 834.064 532.531 831.835 530.716C831.946 524.46 830.16 518.403 828.95 512.316Z" fill="#EA5A35"/>
<path d="M1313.42 551.1C1315.82 550.731 1316.51 554.007 1317.91 555.423C1318.55 556.346 1319.19 557.275 1319.85 558.205C1320.81 559.592 1321.77 560.993 1322.74 562.395C1321.91 562.949 1321.09 563.509 1320.29 564.077C1322.23 567.995 1325.34 571.204 1326.97 575.291C1322.16 578.523 1317.45 581.909 1312.65 585.14C1312.16 584.698 1311.73 584.203 1311.31 583.731C1312.19 583.827 1313.07 583.93 1313.97 584.041C1313.92 581.651 1311.77 579.474 1309.37 579.401C1308.03 579.356 1306.81 578.847 1306.06 577.718C1307.63 577.615 1309.15 577.114 1310.39 576.11C1312.5 573.594 1311.84 569.559 1308.91 567.987C1305.85 566.541 1302.39 568.408 1301.39 571.492C1299.43 568.784 1297.43 566.121 1295.47 563.421C1301.48 559.348 1307.33 555.032 1313.42 551.1Z" fill="#EA5A35"/>
<path d="M1283.78 571.721C1285.77 569.832 1288.25 568.533 1290.45 566.888C1295.04 571.654 1299.99 576.103 1304.2 581.201C1305.49 583.776 1304.81 587 1306.35 589.567C1303.89 591.043 1301.77 593.197 1299.09 594.215C1296.69 593.241 1295.9 590.172 1294.16 588.379C1290.74 583.171 1286.97 578.191 1283.61 572.945C1283.66 572.643 1283.74 572.023 1283.78 571.721Z" fill="#EA5A35"/>
<path d="M1339.84 513.039C1341.27 512.736 1342.69 512.434 1344.15 512.198L1344.24 512.191C1344.33 512.692 1344.51 513.703 1344.6 514.205C1344.18 514.301 1343.36 514.485 1342.95 514.574L1342.67 514.64C1342.04 514.714 1340.77 514.876 1340.13 514.95C1340.09 514.699 1340.01 514.197 1339.97 513.939L1339.84 513.039Z" fill="#C51F05"/>
<path d="M1344.6 514.205C1345.82 514.249 1347.06 514.293 1348.29 514.522L1348.63 515.304C1347.93 515.695 1346.09 515.732 1346.53 516.979C1347 519.391 1348.31 521.59 1348.47 524.083L1348.29 523.818C1346.24 520.896 1344.68 517.679 1342.95 514.573C1343.36 514.485 1344.18 514.3 1344.6 514.205Z" fill="#092931"/>
<path d="M1324.87 521.892C1327.2 525.131 1328.5 529.071 1329.35 532.929C1325.99 530.28 1325.69 525.758 1324.87 521.892Z" fill="#E55733"/>
<path d="M622.813 532.383C628.798 531.69 634.798 530.767 640.834 531.048C644.362 531.099 648.14 530.443 651.336 532.346C652.701 536.478 656.354 539.053 659.475 541.804C661.778 543.715 664.029 545.692 666.464 547.426C665.047 549.573 662.663 550.687 660.663 552.185C656.981 554.708 653.468 557.526 649.498 559.592C648.568 560.271 647.638 559.289 646.804 558.95C645.173 557.88 643.255 557.467 641.38 557.061C640.79 554.774 641.078 551.307 638.591 550.237C632.908 550.089 627.219 550.222 621.536 550.2C621.654 548.334 621.765 546.474 621.898 544.623C622.208 540.543 622.451 536.456 622.813 532.383Z" fill="#E55733"/>
<path d="M1289.75 530.48C1292.05 527.381 1294.54 524.024 1298.41 522.851C1299.94 523.707 1301.18 525.028 1301.57 526.791C1302.72 531.114 1303.28 535.939 1301.66 540.218C1298.65 544.659 1295.2 549.034 1293.88 554.354C1293.04 554.531 1292.22 554.737 1291.39 554.892C1288.75 554.7 1286.14 554.095 1283.77 552.893C1282.77 552.103 1281.84 551.233 1280.93 550.37C1282.61 543.272 1285.49 536.419 1289.75 530.48Z" fill="#E75732"/>
<path d="M865.619 529.882C865.73 528.023 866.527 526.326 867.243 524.644C868.711 526.68 870.062 528.79 871.412 530.908C869.42 530.819 867.634 529.55 865.619 529.882Z" fill="#ED9458"/>
<path d="M838.89 535.961C841.347 537.289 843.901 538.44 846.439 539.613C843.879 540.675 841.414 541.974 838.779 542.837C838.72 540.543 838.809 538.256 838.89 535.961Z" fill="#ED9458"/>
<path d="M1063 540.55C1066.37 540.181 1069.79 540.085 1073.16 540.572C1073.67 543.442 1073.63 546.401 1073.39 549.307C1072.46 551.174 1069.83 550.421 1068.13 550.643C1066.41 550.414 1063.79 551.196 1062.84 549.329C1062.52 546.415 1062.51 543.442 1063 540.55Z" fill="#145B39"/>
<path d="M1080.81 540.705C1081.9 540.174 1083.17 540.351 1084.37 540.277C1097.64 540.343 1110.93 540.248 1124.22 540.336C1127.4 540.344 1126.18 544.35 1126.43 546.393C1126.17 547.699 1126.91 550.444 1124.94 550.554C1111.16 550.672 1097.37 550.532 1083.59 550.613C1082.38 550.621 1080.49 550.687 1080.26 549.13C1079.98 546.445 1079.86 543.686 1080.33 541.022L1080.81 540.705Z" fill="#145B39"/>
<path d="M1044.17 555.645C1052.39 555.136 1060.65 555.571 1068.89 555.416C1085.12 555.423 1101.36 555.423 1117.59 555.438C1120.2 555.475 1122.83 555.239 1125.43 555.608C1127.01 556.582 1126.21 558.883 1126.45 560.455C1126.25 562.27 1127.14 565.951 1124.19 565.627C1098.36 565.649 1072.52 565.656 1046.69 565.649C1045.57 565.663 1043.79 565.634 1043.82 564.085C1043.62 561.274 1043.5 558.397 1044.17 555.645Z" fill="#145B39"/>
<path d="M1031.29 570.924C1036.15 570.348 1041.07 570.872 1045.96 570.695C1052.81 570.835 1059.7 570.37 1066.54 570.938C1066.96 573.794 1067.03 576.715 1066.68 579.592C1066.5 580.647 1065.39 581.068 1064.44 580.95C1054.36 580.876 1044.28 580.935 1034.2 580.928C1033.13 580.839 1031.98 581.068 1031 580.596C1029.95 579.017 1030.53 576.966 1030.36 575.188C1030.5 573.764 1030.01 571.942 1031.29 570.924Z" fill="#145B39"/>
<path d="M1073.53 572.303C1073.49 570.429 1075.75 570.784 1077.01 570.695C1092.51 570.695 1108 570.68 1123.49 570.702C1124.56 570.688 1126.34 570.784 1126.3 572.296C1126.54 574.908 1126.6 577.586 1126.16 580.19C1125.35 581.26 1123.86 580.787 1122.73 580.957C1106.57 580.883 1090.4 581.009 1074.23 580.861C1072.8 578.264 1073.57 575.129 1073.53 572.303Z" fill="#145B39"/>
<path d="M1030.61 586.336C1031.12 586.254 1032.15 586.077 1032.67 585.996C1062.93 586.026 1093.19 585.989 1123.46 585.996C1124.45 586.011 1125.82 585.981 1126.21 587.155C1126.57 589.921 1126.54 592.754 1126.09 595.513C1123.56 596.384 1120.85 595.934 1118.24 596.015C1090.21 596.008 1062.19 596.037 1034.16 596.015C1032.98 595.993 1031.82 595.875 1030.66 595.772C1030.24 592.643 1030.24 589.464 1030.61 586.336Z" fill="#145B39"/>
<path d="M768.813 550.576C777.144 548.894 785.852 550.237 793.785 553.077C792.627 558.197 791.062 563.281 790.723 568.548C790.62 572.053 790.442 575.557 790.354 579.061C781.129 577.497 771.86 574.155 764.791 567.847C761.802 565.059 758.747 561.06 759.979 556.729C761.263 553.033 765.285 551.366 768.813 550.576Z" fill="#135D3A"/>
<path d="M1317.03 613.95C1318.1 608.122 1318.62 602.198 1319.96 596.414C1323.33 600.884 1326.97 605.134 1330.61 609.383C1332.07 612.298 1332.8 615.588 1334.73 618.296C1328.66 617.683 1322.69 616.23 1317.03 613.95Z" fill="#135D3A"/>
<path d="M1317.91 555.423C1322.45 554 1327.06 552.76 1331.63 551.447C1332.02 552.465 1332.42 553.491 1332.85 554.516C1328.62 556.11 1324.2 557.061 1319.85 558.205C1319.19 557.275 1318.55 556.346 1317.91 555.423Z" fill="#14603C"/>
<path d="M915.897 553.513C915.882 558.19 915.321 562.86 914.901 567.523C912.716 568.865 910.591 570.304 908.458 571.735C904.06 570.238 899.654 568.799 895.278 567.272C902.127 562.653 909.122 558.249 915.897 553.513Z" fill="#FFF0C5"/>
<path d="M651.254 562.772C656.664 560.005 662.28 557.659 667.873 555.298C668.523 558.965 669.349 562.609 669.836 566.305L669.467 566.969C667.873 568.696 665.844 569.957 663.667 570.821C657.962 573.13 651.793 573.882 645.705 574.443C645.365 572.717 644.893 571.034 644.487 569.33C646.007 568.836 647.727 568.26 648.546 566.77C649.439 565.427 649.631 563.48 651.254 562.772Z" fill="#D84A2E"/>
<path d="M1320.29 564.077C1321.09 563.509 1321.91 562.949 1322.74 562.395C1324.91 565.73 1327.45 568.829 1329.43 572.296C1329.73 573.86 1327.92 574.45 1326.97 575.291C1325.34 571.204 1322.23 567.995 1320.29 564.077Z" fill="#E74416"/>
<path d="M1308.91 567.987C1311.84 569.559 1312.5 573.594 1310.39 576.11C1310.05 573.366 1309.11 570.747 1308.91 567.987Z" fill="#17172D"/>
<path d="M1197.62 579.386C1199.92 576.118 1202.38 572.967 1204.96 569.913C1206.52 570.378 1208.14 570.754 1209.8 570.717C1221.84 570.68 1233.89 570.769 1245.94 570.643C1247.4 570.607 1248.82 571.02 1250.23 571.44C1236.88 579.688 1220.21 581.658 1204.99 578.56C1204.72 578.84 1204.18 579.401 1203.9 579.681C1201.8 579.762 1199.7 579.666 1197.62 579.386Z" fill="#216846"/>
<path d="M621.374 576.944C629.396 576.76 637.425 577.106 645.439 576.789C644.347 577.195 643.292 577.689 642.207 578.139C642.915 582.986 644.17 587.723 644.945 592.555C643.779 596.458 641.956 600.117 640.746 603.998C640.753 610.431 638.133 616.444 636.65 622.619C634.628 622.516 632.635 622.147 630.724 621.49C628.636 620.789 626.377 621.07 624.274 620.494C623.175 619.712 622.946 618.2 622.422 617.034C621.964 603.68 621.662 590.312 621.374 576.944Z" fill="#10272B"/>
<path d="M1180.83 609.236C1185.14 598.649 1191 588.696 1197.62 579.386C1199.7 579.666 1201.8 579.762 1203.9 579.681C1196.89 589.228 1190.74 599.468 1186.1 610.387L1185.95 610.364C1184.33 610.077 1182.71 609.789 1181.09 609.597L1180.83 609.236Z" fill="#145F3C"/>
<path d="M1320.97 587.464C1327.93 586.69 1335.43 585.937 1341.16 581.503C1342.64 585.716 1343.94 589.995 1345.39 594.222C1347.75 601.711 1350.54 609.081 1352.12 616.79C1356.25 632.047 1360.97 647.149 1365.42 662.318C1365.98 664.59 1363.98 665.225 1362.17 664.701C1362.18 663.188 1361.63 661.801 1360.94 660.496C1358.8 655.656 1355.43 651.554 1352.66 647.09C1346.56 637.566 1340.62 627.953 1334.73 618.296C1332.8 615.588 1332.07 612.298 1330.61 609.383C1326.97 605.134 1323.33 600.884 1319.96 596.413C1320.1 593.411 1320.42 590.415 1320.97 587.464Z" fill="#10262B"/>
<path d="M836.005 602.935C840.624 611.966 843.96 621.608 846.72 631.354C847.377 626.138 848.528 620.701 851.9 616.51C854.195 613.574 857.745 611.707 861.457 611.397C868.195 610.741 875.213 613.515 879.7 618.576C880.415 620.796 881.663 622.914 884.002 623.718C885.648 625.976 886.703 628.573 887.884 631.096C888.732 631.487 889.153 630.373 889.492 629.797C890.179 628.027 890.651 626.182 891.175 624.36C896.474 623.364 901.883 623.748 907.248 623.674C918.775 623.711 930.302 623.644 941.822 623.703C947.416 628.462 953.15 634.017 954.493 641.579C957.688 650.735 954.773 660.363 952.168 669.267C914.185 669.26 876.194 669.282 838.211 669.26C838.115 668.36 838.565 666.833 837.348 666.538C834.315 665.475 831.156 664.819 828.005 664.265C829.466 651.163 831.127 638.09 832.61 624.987C836.034 628.1 839.252 631.442 842.203 635.013C840.049 627.171 837.739 619.277 834.174 611.936C834.115 611.021 834.071 610.106 834.042 609.206C835.436 607.414 835.665 605.09 836.005 602.935Z" fill="#104E35"/>
<path d="M784.015 612.143C785.793 610.438 788.066 609.406 790.31 608.491L790.686 608.992C791.461 610.402 792.885 611.154 794.354 611.67C794.391 617.573 795.608 623.371 796.457 629.192C797.785 637.352 798.973 645.541 800.796 653.605C801.446 656.622 801.637 659.714 801.682 662.797C799.475 664.236 799.726 666.966 799.512 669.268C777.919 669.268 756.326 669.268 734.733 669.268C731.84 662.982 728.608 656.726 727.545 649.805C727.14 647.636 727.029 645.43 727.154 643.239C727.575 637.699 729.944 632.387 733.612 628.233C743.773 628.602 753.95 628.285 764.126 628.366C769.75 628.218 775.38 628.669 780.996 628.218C781.188 626.072 780.96 623.932 780.664 621.815C780.295 618.325 781.41 614.577 784.015 612.143Z" fill="#104E35"/>
<path d="M811.689 613.471C813.312 613.434 814.943 613.316 816.574 613.242C817.828 615.064 817.541 617.396 817.954 619.491C819.563 629.842 821.267 640.185 823.289 650.469C824.278 654.667 824.839 658.976 824.692 663.306C823.496 665.077 823.585 667.217 823.555 669.268C818.227 669.26 812.891 669.268 807.563 669.268C807.416 667.467 807.187 665.682 806.825 663.926C806.397 663.675 805.534 663.181 805.106 662.93C807.394 646.456 809.696 629.982 811.689 613.471Z" fill="#104E35"/>
<path d="M1077.84 623.77C1089.35 623.644 1100.86 623.725 1112.37 623.718C1116.04 623.74 1119.75 623.438 1123.38 624.153C1126.5 626.153 1129.09 628.838 1131.64 631.501C1130.5 634.903 1129.8 638.436 1128.94 641.919C1127.92 649.938 1128.79 658.268 1131.95 665.748C1139.45 666.184 1146.97 665.763 1154.47 665.896C1173.42 665.874 1192.37 665.962 1211.32 665.896C1215.13 666.132 1217.04 662.369 1219.26 659.957C1223.78 654.999 1227.66 649.481 1231.16 643.763C1232.58 641.439 1233.38 638.746 1235.1 636.607C1236.11 635.389 1237.88 635.817 1239.27 635.655C1253.83 635.721 1268.39 635.633 1282.95 635.773C1280.26 640.222 1277.51 644.641 1274.9 649.134C1273.09 652.159 1271.68 655.516 1269.01 657.913C1267.21 658.054 1265.44 658.363 1263.69 658.769C1264.29 662.384 1265.79 665.748 1266.8 669.26C1200.38 669.275 1133.97 669.26 1067.56 669.268C1066.46 664.966 1064.72 660.805 1064.37 656.342C1063.11 649.392 1064.27 642.044 1067.36 635.722C1069.65 630.815 1073.84 627.259 1077.84 623.77Z" fill="#104E35"/>
<path d="M1271.62 660.621C1278.64 654.328 1285.46 647.813 1292.4 641.432C1292.43 641.882 1292.49 642.789 1292.52 643.247C1292.67 645.423 1292.54 647.622 1292.14 649.776C1291.18 656.733 1287.74 662.886 1285.06 669.268C1281.95 669.268 1278.85 669.268 1275.75 669.253C1275.61 668.67 1275.33 667.497 1275.19 666.914C1273.51 666.287 1271.82 665.704 1270.11 665.18C1270.2 663.55 1270.17 661.698 1271.62 660.621Z" fill="#104E35"/>
<path d="M1271.79 619.291C1279.38 613.013 1287.52 607.377 1296.17 602.655C1296.53 604.433 1296.95 606.211 1297.41 607.974C1290.45 612.01 1283.74 616.481 1277.5 621.564C1281.16 623.519 1284.45 626.123 1287.09 629.332C1285.69 631.465 1284.28 633.582 1282.95 635.773C1268.39 635.633 1253.83 635.721 1239.27 635.655C1237.88 635.817 1236.11 635.389 1235.1 636.607C1233.38 638.746 1232.58 641.439 1231.16 643.763C1227.66 649.481 1223.78 654.999 1219.26 659.957C1217.04 662.369 1215.13 666.132 1211.32 665.896C1192.37 665.962 1173.42 665.874 1154.47 665.896C1146.97 665.763 1139.45 666.184 1131.95 665.748C1128.79 658.267 1127.92 649.938 1128.94 641.919C1129.8 638.436 1130.5 634.903 1131.64 631.501C1132.76 628.912 1133.96 626.344 1135.52 623.984C1138.87 623.578 1142.25 623.689 1145.62 623.762C1148.08 623.998 1150.91 622.929 1151.73 620.405C1152.36 617.55 1151.97 614.592 1152.03 611.7C1156.78 610.792 1162.19 611.265 1165.96 614.599C1170.78 618.782 1172.22 625.371 1173.05 631.406C1174.98 624.035 1177.48 616.798 1180.51 609.826L1181.09 609.597C1182.71 609.789 1184.33 610.077 1185.95 610.364C1182.61 618.384 1179.66 626.581 1177.51 635.013C1184.89 626.123 1193.85 618.458 1204.1 613.057C1209.98 610.025 1216.43 607.664 1223.12 607.664C1227.78 607.642 1232.59 609.118 1235.98 612.408C1238.46 614.835 1239.22 618.428 1239.18 621.778C1249.4 617.521 1261.06 616.163 1271.79 619.291Z" fill="#125639"/>
<path d="M739.471 623.268C751.662 615.374 767.684 616.436 780.664 621.815C780.96 623.932 781.188 626.071 780.996 628.218C775.381 628.668 769.75 628.218 764.127 628.366C753.95 628.285 743.773 628.602 733.612 628.233C733.892 627.931 734.46 627.326 734.741 627.031C736.202 625.636 737.803 624.397 739.471 623.268Z" fill="#125639"/>
<path d="M622.422 617.034C622.946 618.2 623.175 619.712 624.274 620.494C626.377 621.069 628.636 620.789 630.724 621.49C632.635 622.147 634.628 622.516 636.65 622.619C633.971 631.988 631.359 641.387 628.37 650.661C627.152 653.929 626.304 657.316 625.743 660.761C625.47 662.03 625.499 663.343 626.038 664.56C625.079 664.833 624.134 665.129 623.182 665.438C622.887 665.062 622.296 664.295 622.001 663.919C622.038 662.849 622.06 661.786 622.068 660.731C622.201 646.168 622.451 631.605 622.422 617.034Z" fill="#0D2D32"/>
<path d="M941.822 623.703C955.637 623.615 969.444 623.703 983.259 623.703C987.487 623.748 991.731 623.482 995.944 623.991C998.638 627.813 1000.81 631.959 1002.9 636.135C1005.6 631.811 1008.57 627.672 1011.77 623.718C1033.79 623.703 1055.82 623.711 1077.84 623.77C1073.84 627.259 1069.65 630.815 1067.36 635.721C1064.27 642.044 1063.11 649.392 1064.37 656.342C1064.72 660.805 1066.46 664.966 1067.56 669.267C1029.1 669.275 990.638 669.275 952.168 669.267C954.773 660.363 957.688 650.735 954.493 641.579C953.15 634.017 947.416 628.462 941.822 623.703Z" fill="#135A3A"/>
<path d="M727.545 649.805C728.608 656.726 731.84 662.982 734.733 669.268C720.653 669.26 706.58 669.319 692.507 669.238C691.584 666.472 690.817 663.639 690.713 660.71C690.699 657.596 691.496 654.505 693.001 651.775C702.919 651.517 712.83 651.037 722.756 651.06C724.453 651.111 726.04 650.506 727.545 649.805Z" fill="#135B3A"/>
<path d="M1285.06 669.268C1287.74 662.886 1291.18 656.733 1292.14 649.776C1294.58 651.377 1297.49 650.978 1300.25 650.905C1309.04 651.281 1317.85 651.546 1326.65 651.679C1328.2 654.431 1329 657.559 1328.98 660.717C1328.91 663.646 1328.13 666.486 1327.19 669.245C1313.15 669.304 1299.1 669.26 1285.06 669.268Z" fill="#135B3A"/>
<path d="M654.664 660.2C654.804 661.226 654.937 662.259 655.143 663.284C654.686 663.351 653.771 663.476 653.313 663.542C652.996 665.416 652.804 667.312 652.701 669.216C655.313 669.26 657.926 669.26 660.545 669.216C660.435 667.386 660.353 665.557 659.903 663.786L659.446 663.542C659.195 663.402 658.686 663.137 658.427 663.004C658.442 662.428 658.464 661.285 658.479 660.717C669.224 660.466 679.976 660.591 690.713 660.709C690.817 663.638 691.584 666.471 692.507 669.238C706.58 669.319 720.653 669.26 734.733 669.267C756.326 669.267 777.919 669.267 799.512 669.267C802.191 669.267 804.877 669.26 807.563 669.267C812.891 669.267 818.227 669.26 823.555 669.267C828.44 669.267 833.326 669.267 838.211 669.26C876.194 669.282 914.185 669.26 952.168 669.267C990.638 669.275 1029.1 669.275 1067.56 669.267C1133.97 669.26 1200.38 669.275 1266.8 669.26C1269.78 669.275 1272.76 669.267 1275.75 669.253C1278.85 669.267 1281.95 669.267 1285.06 669.267C1299.1 669.26 1313.15 669.304 1327.19 669.245C1328.13 666.486 1328.91 663.646 1328.98 660.717C1339.63 660.392 1350.29 660.82 1360.94 660.496C1361.63 661.801 1362.18 663.188 1362.17 664.701C1362.7 666.287 1363.5 667.762 1364.27 669.26C1367.87 667.165 1371.45 665.04 1375.02 662.879C1375.92 662.362 1376.58 661.551 1377.24 660.761C1382.42 660.444 1387.61 660.658 1392.8 660.614C1397.21 660.466 1401.32 664.494 1401.14 668.928C1401.58 673.532 1397.49 678.039 1392.83 677.811C1127.15 677.796 861.487 677.818 595.811 677.803C592.704 677.722 589.538 678.121 586.476 677.464C581.797 675.885 579.531 670.079 581.516 665.652C582.926 662.783 585.826 660.414 589.169 660.628C600.135 660.658 611.109 660.414 622.068 660.732C622.06 661.787 622.038 662.849 622.001 663.919C618.931 664.693 615.847 665.424 612.799 666.28C611.773 666.405 611.426 667.467 610.865 668.176C611.648 668.847 612.555 669.172 613.581 669.172C617.876 669.267 622.178 669.238 626.481 669.275C626.377 667.696 626.318 666.11 626.038 664.561C625.499 663.343 625.47 662.03 625.743 660.761C635.366 660.097 645.07 661.263 654.664 660.2Z" fill="white"/>
<path d="M799.512 669.268C799.726 666.966 799.475 664.236 801.682 662.797C801.217 664.878 803.01 665.52 804.73 665.402C804.855 664.568 804.98 663.749 805.106 662.93C805.534 663.181 806.397 663.675 806.825 663.926C807.187 665.682 807.416 667.467 807.563 669.268C804.877 669.26 802.191 669.268 799.512 669.268Z" fill="#101D23"/>
<path d="M653.313 663.542C653.771 663.476 654.686 663.351 655.143 663.284C655.439 663.837 656.036 664.951 656.332 665.512C657.365 664.848 658.413 664.192 659.446 663.542L659.903 663.786C660.353 665.556 660.435 667.386 660.545 669.216C657.926 669.26 655.313 669.26 652.701 669.216C652.804 667.312 652.996 665.416 653.313 663.542Z" fill="#101D23"/>
<path d="M823.555 669.268C823.585 667.217 823.496 665.077 824.692 663.306C824.721 663.793 824.773 664.782 824.795 665.269C825.961 665.756 827.4 665.446 828.005 664.265C831.156 664.819 834.315 665.475 837.348 666.538C838.565 666.833 838.115 668.36 838.211 669.26C833.326 669.268 828.44 669.268 823.555 669.268Z" fill="#101D23"/>
<path d="M612.799 666.28C615.847 665.424 618.931 664.693 622.001 663.919C622.296 664.295 622.887 665.062 623.182 665.439C624.134 665.129 625.079 664.834 626.038 664.561C626.318 666.11 626.377 667.696 626.481 669.275C622.178 669.238 617.876 669.268 613.581 669.172C612.555 669.172 611.648 668.847 610.865 668.176C611.426 667.467 611.773 666.405 612.799 666.28Z" fill="#101D23"/>
<defs>
<clipPath id="clip0_15_2">
<rect width="1518" height="693" fill="white" transform="translate(-6)"/>
</clipPath>
</defs>
</svg>
