<svg width="594" height="396" viewBox="0 0 594 396" fill="none" xmlns="http://www.w3.org/2000/svg">
<path d="M0 0H594V270.973C572.562 238.803 549.534 207.563 523.364 179.056C506.761 161.103 488.872 144.179 468.755 130.2C454.346 120.235 438.699 111.776 421.809 106.885C410.904 103.688 399.396 102.193 388.065 103.5C371.997 105.212 356.92 112.281 344.02 121.805C330.521 131.719 318.948 143.991 308.439 156.964C284.496 186.308 265.805 219.414 243.5 249.945C237.051 258.573 230.304 267.048 222.428 274.438C216.191 280.224 209.142 285.511 200.901 288.006C191.733 290.832 180.923 289.209 173.641 282.744C167.315 277.551 161.261 272.032 155.044 266.711C140.565 254.232 125.473 242.327 108.905 232.714C96.8368 225.779 83.8926 219.988 70.1167 217.508C59.0683 215.469 47.4111 215.954 36.8527 219.968C30.9523 222.111 25.8836 225.987 21.2652 230.15C13.261 237.491 6.4251 246 0 254.727V0ZM168.929 151.688C158.999 152.831 150.396 160.697 148.198 170.419C146.431 177.71 148.168 185.773 152.881 191.624C157.153 197.079 163.82 200.589 170.755 200.891C177.235 201.277 183.794 198.886 188.555 194.481C193.991 189.526 197 182.056 196.495 174.72C196.134 167.79 192.669 161.108 187.219 156.811C182.16 152.703 175.383 150.841 168.929 151.688Z" fill="#C2CBD2"/>
<path d="M388.065 103.5C399.396 102.193 410.904 103.688 421.809 106.885C438.699 111.776 454.346 120.235 468.755 130.2C488.872 144.179 506.761 161.103 523.364 179.056C549.534 207.563 572.562 238.803 594 270.973V396H0V254.727C6.4251 246 13.261 237.491 21.2652 230.15C25.8836 225.987 30.9523 222.111 36.8527 219.968C47.4111 215.954 59.0683 215.469 70.1167 217.508C83.8926 219.988 96.8368 225.779 108.905 232.714C125.473 242.327 140.565 254.232 155.044 266.711C161.261 272.032 167.315 277.551 173.641 282.744C180.923 289.209 191.733 290.832 200.901 288.006C209.142 285.511 216.191 280.224 222.428 274.438C230.304 267.048 237.051 258.573 243.5 249.945C265.805 219.414 284.496 186.308 308.439 156.965C318.948 143.991 330.521 131.72 344.02 121.805C356.92 112.281 371.997 105.212 388.065 103.5Z" fill="#F1F3F5"/>
<path d="M168.929 151.688C175.383 150.841 182.16 152.703 187.219 156.811C192.669 161.108 196.134 167.79 196.495 174.72C197 182.056 193.991 189.526 188.555 194.481C183.793 198.886 177.235 201.277 170.755 200.891C163.82 200.589 157.153 197.079 152.881 191.624C148.168 185.773 146.431 177.71 148.198 170.419C150.396 160.697 158.999 152.831 168.929 151.688Z" fill="#F1F3F5"/>
</svg>
